<svg width="163" height="60" viewBox="0 0 163 60" fill="none" xmlns="http://www.w3.org/2000/svg">
<path d="M40.533 16.3633C39.976 16.3633 39.7141 17.0514 40.1299 17.4219L52.1663 28.1454C52.3954 28.3495 52.7407 28.3502 52.9705 28.1471L65.108 17.4236C65.5267 17.054 65.2649 16.3633 64.7069 16.3633H40.533Z" fill="black"/>
<path d="M67.2316 22.2429C67.4164 21.9386 67.0159 21.6199 66.7614 21.8684L55.0818 33.2507C55.0269 33.3041 54.9943 33.3764 54.9906 33.4529L54.5746 41.9708C54.5593 42.2846 54.9729 42.4115 55.1361 42.143L67.2316 22.2429Z" fill="black"/>
<path d="M49.8714 42.0798C50.0327 42.3539 50.4536 42.2259 50.435 41.9082L49.9396 33.4887C49.9352 33.4139 49.9032 33.3433 49.8499 33.2907L39.218 22.8003C38.9656 22.5513 38.5643 22.8641 38.7442 23.1698L49.8714 42.0798Z" fill="black"/>
<path d="M75.8516 30.1628C75.8516 27.3894 76.4514 24.9228 77.6512 22.7628C78.851 20.5761 80.5174 18.8828 82.6503 17.6828C84.8099 16.4561 87.2494 15.8428 89.9689 15.8428C93.3017 15.8428 96.1545 16.7228 98.5274 18.4828C100.9 20.2428 102.487 22.6428 103.286 25.6828H95.7679C95.208 24.5094 94.4081 23.6161 93.3683 23.0028C92.3552 22.3894 91.1954 22.0828 89.889 22.0828C87.7827 22.0828 86.0763 22.8161 84.7699 24.2828C83.4635 25.7494 82.8103 27.7094 82.8103 30.1628C82.8103 32.6161 83.4635 34.5761 84.7699 36.0428C86.0763 37.5094 87.7827 38.2428 89.889 38.2428C91.1954 38.2428 92.3552 37.9361 93.3683 37.3228C94.4081 36.7094 95.208 35.8161 95.7679 34.6428H103.286C102.487 37.6828 100.9 40.0828 98.5274 41.8428C96.1545 43.5761 93.3017 44.4428 89.9689 44.4428C87.2494 44.4428 84.8099 43.8428 82.6503 42.6428C80.5174 41.4161 78.851 39.7228 77.6512 37.5628C76.4514 35.4028 75.8516 32.9361 75.8516 30.1628ZM122.788 38.9628H131.747V44.2428H115.95V16.1628H122.788V38.9628ZM150.322 21.6428V27.3228H159.48V32.6028H150.322V38.7628H160.68V44.2428H143.483V16.1628H160.68V21.6428H150.322Z" fill="black"/>
<path d="M1.32031 30.1628C1.32031 27.3894 1.9202 24.9228 3.11998 22.7628C4.31975 20.5761 5.98611 18.8828 8.11905 17.6828C10.2786 16.4561 12.7182 15.8428 15.4377 15.8428C18.7704 15.8428 21.6232 16.7228 23.9961 18.4828C26.369 20.2428 27.9554 22.6428 28.7552 25.6828H21.2366C20.6767 24.5094 19.8769 23.6161 18.8371 23.0028C17.8239 22.3894 16.6641 22.0828 15.3577 22.0828C13.2514 22.0828 11.5451 22.8161 10.2387 24.2828C8.93223 25.7494 8.27902 27.7094 8.27902 30.1628C8.27902 32.6161 8.93223 34.5761 10.2387 36.0428C11.5451 37.5094 13.2514 38.2428 15.3577 38.2428C16.6641 38.2428 17.8239 37.9361 18.8371 37.3228C19.8769 36.7094 20.6767 35.8161 21.2366 34.6428H28.7552C27.9554 37.6828 26.369 40.0828 23.9961 41.8428C21.6232 43.5761 18.7704 44.4428 15.4377 44.4428C12.7182 44.4428 10.2786 43.8428 8.11905 42.6428C5.98611 41.4161 4.31975 39.7228 3.11998 37.5628C1.9202 35.4028 1.32031 32.9361 1.32031 30.1628Z" fill="black"/>
</svg>
