<svg width="460" height="476" viewBox="0 0 460 476" fill="none" xmlns="http://www.w3.org/2000/svg">
<path d="M0 0H460V156H0V0Z" fill="#14141C"/>
<rect x="395" y="11" width="40" height="22.1429" rx="4" fill="white" fill-opacity="0.14"/>
<path d="M405.14 27.2002H406.184V18.6202H405.14V27.2002ZM408.408 27.2002H409.404V19.8442L413.736 27.2002H414.936V18.6202H413.94V25.7122L409.764 18.6202H408.408V27.2002ZM418.136 26.3482V19.4602H419.3C421.664 19.4602 422.624 20.8522 422.624 22.8322V22.9282C422.624 25.0282 421.52 26.3482 419.312 26.3482H418.136ZM417.092 27.2002H419.336C422.336 27.2002 423.704 25.3162 423.704 22.9402V22.8322C423.704 20.4442 422.312 18.6202 419.36 18.6202H417.092V27.2002Z" fill="white" fill-opacity="0.7"/>
<path d="M20.476 37H25.426C28.252 37 29.836 35.794 29.836 33.4V33.328C29.836 31.618 29.008 30.664 27.262 30.286C28.72 29.836 29.296 28.828 29.296 27.55V27.478C29.296 25.138 27.73 24.13 25.084 24.13H20.476V37ZM22.816 35.29V31.168H24.976C26.74 31.168 27.478 31.834 27.478 33.166V33.238C27.478 34.57 26.74 35.29 25.138 35.29H22.816ZM22.816 29.548V25.84H24.76C26.29 25.84 26.992 26.362 26.992 27.586V27.658C26.992 28.972 26.38 29.548 24.796 29.548H22.816ZM34.3636 37.18C35.8036 37.18 36.6316 36.658 37.2436 35.848V37H39.3856V30.826C39.3856 28.252 37.7296 27.388 35.6236 27.388C33.5176 27.388 31.7716 28.306 31.5916 30.502H33.6976C33.8056 29.566 34.3636 29.026 35.4976 29.026C36.7756 29.026 37.2076 29.656 37.2076 30.916V31.402H36.0376C33.3376 31.402 31.2136 32.194 31.2136 34.39C31.2136 36.352 32.6356 37.18 34.3636 37.18ZM34.8856 35.614C33.8056 35.614 33.3736 35.092 33.3736 34.3C33.3736 33.148 34.4356 32.77 36.0916 32.77H37.2076V33.706C37.2076 34.912 36.2176 35.614 34.8856 35.614ZM41.9359 37H44.1139V23.23H41.9359V37ZM49.2347 37.18C50.6747 37.18 51.5027 36.658 52.1147 35.848V37H54.2567V30.826C54.2567 28.252 52.6007 27.388 50.4947 27.388C48.3887 27.388 46.6427 28.306 46.4627 30.502H48.5687C48.6767 29.566 49.2347 29.026 50.3687 29.026C51.6467 29.026 52.0787 29.656 52.0787 30.916V31.402H50.9087C48.2087 31.402 46.0847 32.194 46.0847 34.39C46.0847 36.352 47.5067 37.18 49.2347 37.18ZM49.7567 35.614C48.6767 35.614 48.2447 35.092 48.2447 34.3C48.2447 33.148 49.3067 32.77 50.9627 32.77H52.0787V33.706C52.0787 34.912 51.0887 35.614 49.7567 35.614ZM55.511 40.384C58.121 40.348 58.985 39.232 58.985 37.324V27.586H56.807V37.378C56.807 38.17 56.465 38.638 55.511 38.71V40.384ZM57.869 26.038C58.589 26.038 59.165 25.498 59.165 24.796C59.165 24.076 58.589 23.536 57.869 23.536C57.149 23.536 56.573 24.076 56.573 24.796C56.573 25.498 57.149 26.038 57.869 26.038ZM61.6938 37H63.8718V27.586H61.6938V37ZM62.7558 26.038C63.4758 26.038 64.0518 25.498 64.0518 24.796C64.0518 24.076 63.4758 23.536 62.7558 23.536C62.0358 23.536 61.4598 24.076 61.4598 24.796C61.4598 25.498 62.0358 26.038 62.7558 26.038ZM70.0055 37H72.2555L73.2635 33.814H78.1775L79.2035 37H81.6875L77.4395 24.13H74.3075L70.0055 37ZM75.7295 26.092L77.6195 32.068H73.8215L75.7295 26.092ZM83.4718 37H85.6498V31.366C85.6498 29.926 86.6398 29.206 87.7198 29.206C88.7818 29.206 89.3938 29.8 89.3938 31.186V37H91.5718V31.366C91.5718 29.926 92.5618 29.206 93.6418 29.206C94.7218 29.206 95.3158 29.8 95.3158 31.186V37H97.4938V31.042C97.4938 28.45 96.0898 27.388 94.3618 27.388C93.1918 27.388 91.8958 27.91 91.1758 29.08C90.7078 27.91 89.7358 27.388 88.5118 27.388C87.1258 27.388 86.0998 28.144 85.6498 29.026V27.586H83.4718V37ZM100.049 37H102.227V27.586H100.049V37ZM101.111 26.038C101.831 26.038 102.407 25.498 102.407 24.796C102.407 24.076 101.831 23.536 101.111 23.536C100.391 23.536 99.8152 24.076 99.8152 24.796C99.8152 25.498 100.391 26.038 101.111 26.038ZM104.882 37H107.06V31.456C107.06 29.962 108.05 29.206 109.274 29.206C110.57 29.206 111.146 29.854 111.146 31.276V37H113.324V31.078C113.324 28.486 111.992 27.388 110.102 27.388C108.554 27.388 107.51 28.162 107.06 29.08V27.586H104.882V37ZM119.973 37.18C122.385 37.18 123.987 36.1 124.293 34.12H122.187C122.025 35.038 121.341 35.56 120.027 35.56C118.407 35.56 117.507 34.552 117.435 32.77H124.329V32.14C124.329 28.774 122.223 27.388 119.883 27.388C117.201 27.388 115.203 29.332 115.203 32.248V32.392C115.203 35.362 117.201 37.18 119.973 37.18ZM117.471 31.312C117.687 29.854 118.569 28.972 119.883 28.972C121.233 28.972 122.061 29.692 122.169 31.312H117.471ZM129.584 37.18C131.996 37.18 133.346 36.082 133.346 34.174C133.346 32.176 132.032 31.636 129.818 31.294C128.324 31.042 127.874 30.772 127.874 30.088C127.874 29.422 128.432 28.972 129.368 28.972C130.376 28.972 130.862 29.368 131.042 30.232H133.058C132.824 28.108 131.294 27.388 129.368 27.388C127.604 27.388 125.84 28.324 125.84 30.214C125.84 31.978 126.758 32.68 129.242 33.076C130.628 33.31 131.258 33.598 131.258 34.372C131.258 35.164 130.736 35.578 129.566 35.578C128.288 35.578 127.802 35.02 127.694 34.066H125.642C125.732 36.064 127.154 37.18 129.584 37.18Z" fill="white"/>
<path d="M33.562 87.5713H35.438V77.5613H33.772L31.448 79.2133V80.8513L33.562 79.4093V87.5713ZM37.0752 87.5713H44.3132V86.1293H40.0572L42.2832 83.9593C43.4732 82.8113 44.2432 81.6773 44.2432 80.3753C44.2432 78.6113 43.0112 77.4213 40.9392 77.4213C38.8252 77.4213 37.5092 78.6813 37.3832 80.8653H39.0912C39.2592 79.4513 39.8892 78.8773 40.8832 78.8773C41.8492 78.8773 42.3812 79.4653 42.3812 80.4033C42.3812 81.3553 41.8072 82.2373 40.8552 83.2453L37.0752 87.2353V87.5713ZM49.215 87.7113C51.511 87.7113 52.967 86.5633 52.967 84.7153C52.967 83.3853 52.197 82.5593 51.035 82.2933C52.001 81.9293 52.659 81.2433 52.659 80.1093C52.659 78.6253 51.441 77.4213 49.355 77.4213C47.213 77.4213 45.911 78.7513 45.813 80.4873H47.465C47.577 79.4793 48.263 78.8353 49.327 78.8353C50.363 78.8353 50.881 79.4373 50.881 80.2493C50.881 81.1873 50.363 81.7193 49.215 81.7193H48.501V83.0493H49.271C50.489 83.0493 51.077 83.5953 51.077 84.6873C51.077 85.6813 50.475 86.3113 49.173 86.3113C47.829 86.3113 47.241 85.5273 47.143 84.4773H45.449C45.533 86.3953 46.835 87.7113 49.215 87.7113ZM53.8916 87.5713H61.1296V86.1293H56.8736L59.0996 83.9593C60.2896 82.8113 61.0596 81.6773 61.0596 80.3753C61.0596 78.6113 59.8276 77.4213 57.7556 77.4213C55.6416 77.4213 54.3256 78.6813 54.1996 80.8653H55.9076C56.0756 79.4513 56.7056 78.8773 57.6996 78.8773C58.6656 78.8773 59.1976 79.4653 59.1976 80.4033C59.1976 81.3553 58.6236 82.2373 57.6716 83.2453L53.8916 87.2353V87.5713Z" fill="white"/>
<path d="M27 76.2893C27 75.8927 26.6786 75.5713 26.282 75.5713H19.718C19.3214 75.5713 19 75.8927 19 76.2892C19 76.6858 19.3214 77.0072 19.718 77.0072H21.8212C23.1811 77.0072 22.5982 78.4431 21.2383 78.4431H19.718C19.3214 78.4431 19 78.7645 19 79.161C19 79.5576 19.3214 79.879 19.718 79.879H21.2383C22.5982 79.879 23.1811 81.3149 21.8212 81.3149H19.9942C19.4451 81.3149 19 81.76 19 82.3091C19 82.5903 19.1191 82.8584 19.3277 83.0469L23.153 86.5027C23.4398 86.7619 23.8763 86.7619 24.1631 86.5027C24.4942 86.2036 24.4942 85.6838 24.1631 85.3846L21.6733 83.1353C21.5233 82.9998 21.6192 82.7508 21.8212 82.7508C23.5211 82.7508 24.9751 81.7814 25.5415 80.4224C25.6699 80.1142 25.9519 79.879 26.2858 79.879C26.6803 79.879 27 79.5555 27 79.1611C27 78.7666 26.6803 78.4431 26.2858 78.4431H26.1563C25.8982 78.4431 25.6788 78.2615 25.5887 78.0195C25.4254 77.5809 25.7083 77.0072 26.1764 77.0072H26.3612C26.714 77.0072 27 76.7212 27 76.3684V76.2893Z" fill="white"/>
<rect x="355.5" y="64.5" width="79" height="30.8857" rx="3.5" stroke="#EA5E4B"/>
<path d="M384.9 83.12C386.796 83.12 388.056 81.956 388.056 80.468C388.056 78.752 387.012 78.176 384.996 77.9C383.508 77.684 383.22 77.336 383.22 76.64C383.22 75.98 383.724 75.512 384.696 75.512C385.68 75.512 386.196 75.896 386.352 76.796H387.816C387.648 75.152 386.544 74.312 384.696 74.312C382.908 74.312 381.708 75.368 381.708 76.772C381.708 78.38 382.68 79.004 384.732 79.28C386.124 79.508 386.52 79.808 386.52 80.6C386.52 81.392 385.848 81.92 384.9 81.92C383.448 81.92 383.1 81.2 382.992 80.336H381.456C381.576 81.956 382.56 83.12 384.9 83.12ZM389.601 83H395.169V81.74H391.197V79.232H394.221V78.032H391.197V75.68H394.965V74.42H389.601V83ZM396.609 83H401.865V81.728H398.205V74.42H396.609V83ZM403.218 83H408.474V81.728H404.814V74.42H403.218V83Z" fill="#EA5E4B"/>
<path d="M382.3 118.899C382.3 118.545 382.013 118.257 381.658 118.257H374.642C374.288 118.257 374 118.545 374 118.899C374 119.254 374.288 119.542 374.642 119.542H376.927C378.241 119.542 377.767 120.826 376.453 120.826H374.642C374.288 120.826 374 121.114 374 121.469C374 121.824 374.288 122.111 374.642 122.111H376.453C377.767 122.111 378.241 123.396 376.927 123.396H374.863C374.386 123.396 374 123.782 374 124.259C374 124.525 374.123 124.776 374.333 124.94L378.392 128.103C378.651 128.305 379.014 128.305 379.273 128.103C379.642 127.816 379.642 127.259 379.273 126.972L376.801 125.046C376.648 124.927 376.733 124.681 376.927 124.681C378.664 124.681 380.153 123.84 380.759 122.653C380.915 122.348 381.206 122.111 381.548 122.111H381.658C382.013 122.111 382.3 121.824 382.3 121.469C382.3 121.114 382.013 120.826 381.658 120.826H381.337C381.119 120.826 380.934 120.684 380.851 120.482C380.688 120.091 380.93 119.542 381.354 119.542H381.681C382.023 119.542 382.3 119.265 382.3 118.923V118.899Z" fill="white" fill-opacity="0.7"/>
<path d="M391.859 129.371H393.049V127.271H394.435V126.277H393.049V119.361H391.425L386.847 126.879V127.271H391.859V129.371ZM388.387 126.277L391.859 120.285V126.277H388.387ZM399.689 128.489C398.023 128.489 396.959 127.173 396.959 124.639V124.079C396.959 121.615 397.967 120.215 399.661 120.215C401.355 120.215 402.335 121.727 402.335 124.051V124.611C402.335 127.145 401.439 128.489 399.689 128.489ZM399.689 129.497C402.153 129.497 403.567 127.537 403.567 124.625V124.065C403.567 121.209 402.125 119.235 399.661 119.235C397.211 119.235 395.713 121.139 395.713 124.093V124.653C395.713 127.565 397.295 129.497 399.689 129.497ZM409.218 128.489C407.552 128.489 406.488 127.173 406.488 124.639V124.079C406.488 121.615 407.496 120.215 409.19 120.215C410.884 120.215 411.864 121.727 411.864 124.051V124.611C411.864 127.145 410.968 128.489 409.218 128.489ZM409.218 129.497C411.682 129.497 413.096 127.537 413.096 124.625V124.065C413.096 121.209 411.654 119.235 409.19 119.235C406.74 119.235 405.242 121.139 405.242 124.093V124.653C405.242 127.565 406.824 129.497 409.218 129.497Z" fill="white" fill-opacity="0.7"/>
<path d="M23.494 130.726C25.482 130.726 26.952 129.452 26.952 127.772C26.952 125.882 25.776 125.21 23.55 124.86C21.506 124.552 21.142 124.048 21.142 123.068C21.142 122.13 21.856 121.444 23.228 121.444C24.614 121.444 25.342 121.962 25.58 123.222H26.672C26.476 121.444 25.23 120.464 23.228 120.464C21.338 120.464 20.008 121.64 20.008 123.18C20.008 124.958 21.254 125.616 23.354 125.938C25.258 126.246 25.776 126.722 25.776 127.856C25.776 128.99 24.782 129.746 23.494 129.746C21.478 129.746 21.002 128.738 20.848 127.548H19.672C19.854 129.256 20.82 130.726 23.494 130.726ZM31.1793 130.698C31.6553 130.698 31.9353 130.628 32.1733 130.544V129.564C31.9213 129.662 31.6413 129.718 31.2773 129.718C30.6893 129.718 30.3673 129.368 30.3673 128.654V124.258H32.0753V123.278H30.3673V121.612H29.2053V123.278H28.1553V124.258H29.2053V128.766C29.2053 129.914 29.8493 130.698 31.1793 130.698ZM36.9819 129.76C35.4979 129.76 34.5879 128.668 34.5879 127.002V126.89C34.5879 125.21 35.5119 124.118 36.9819 124.118C38.4379 124.118 39.3759 125.21 39.3759 126.904V127.002C39.3759 128.654 38.4519 129.76 36.9819 129.76ZM36.9679 130.726C39.0539 130.726 40.5799 129.2 40.5799 126.988V126.876C40.5799 124.678 39.0539 123.152 36.9819 123.152C34.9099 123.152 33.3839 124.692 33.3839 126.89V127.002C33.3839 129.144 34.8819 130.726 36.9679 130.726ZM42.3791 133.148H43.5411V129.396C43.9611 130.124 44.8151 130.726 46.0191 130.726C48.0351 130.726 49.3511 129.186 49.3511 126.946V126.834C49.3511 124.552 47.9371 123.152 46.0191 123.152C44.9551 123.152 43.9611 123.796 43.5411 124.51V123.278H42.3791V133.148ZM45.9071 129.76C44.4791 129.76 43.4991 128.878 43.4991 127.002V126.89C43.4991 125.014 44.5351 124.118 45.8931 124.118C47.1251 124.118 48.1471 125.042 48.1471 126.89V127.002C48.1471 128.78 47.3631 129.76 45.9071 129.76ZM50.8205 127.296H53.8165V126.204H50.8205V127.296ZM55.9163 130.6H61.7123V129.606H57.1343V120.59H55.9163V130.6ZM66.2397 129.76C64.7557 129.76 63.8457 128.668 63.8457 127.002V126.89C63.8457 125.21 64.7697 124.118 66.2397 124.118C67.6957 124.118 68.6337 125.21 68.6337 126.904V127.002C68.6337 128.654 67.7097 129.76 66.2397 129.76ZM66.2257 130.726C68.3117 130.726 69.8377 129.2 69.8377 126.988V126.876C69.8377 124.678 68.3117 123.152 66.2397 123.152C64.1677 123.152 62.6417 124.692 62.6417 126.89V127.002C62.6417 129.144 64.1397 130.726 66.2257 130.726ZM73.9049 130.726C75.6829 130.726 76.5929 129.83 76.5929 128.5C76.5929 126.946 75.5289 126.61 74.0169 126.33C72.6729 126.092 72.3089 125.826 72.3089 125.168C72.3089 124.538 72.8549 124.118 73.6949 124.118C74.6189 124.118 75.0669 124.468 75.2349 125.266H76.3549C76.1589 123.684 75.0249 123.152 73.7089 123.152C72.5609 123.152 71.2309 123.852 71.2309 125.21C71.2309 126.484 71.8749 127.016 73.7789 127.366C74.9129 127.576 75.4869 127.828 75.4869 128.598C75.4869 129.382 74.9969 129.76 73.8909 129.76C72.7149 129.76 72.2529 129.214 72.1689 128.346H71.0349C71.1049 129.844 72.1549 130.726 73.9049 130.726ZM80.6315 130.726C82.4095 130.726 83.3195 129.83 83.3195 128.5C83.3195 126.946 82.2555 126.61 80.7435 126.33C79.3995 126.092 79.0355 125.826 79.0355 125.168C79.0355 124.538 79.5815 124.118 80.4215 124.118C81.3455 124.118 81.7935 124.468 81.9615 125.266H83.0815C82.8855 123.684 81.7515 123.152 80.4355 123.152C79.2875 123.152 77.9575 123.852 77.9575 125.21C77.9575 126.484 78.6015 127.016 80.5055 127.366C81.6395 127.576 82.2135 127.828 82.2135 128.598C82.2135 129.382 81.7235 129.76 80.6175 129.76C79.4415 129.76 78.9795 129.214 78.8955 128.346H77.7615C77.8315 129.844 78.8815 130.726 80.6315 130.726Z" fill="white" fill-opacity="0.7"/>
<rect x="255.5" y="64.2139" width="79" height="30.8857" rx="3.5" stroke="#EA5E4B"/>
<path d="M284.9 83.577C286.796 83.577 288.056 82.413 288.056 80.925C288.056 79.209 287.012 78.633 284.996 78.357C283.508 78.141 283.22 77.793 283.22 77.097C283.22 76.437 283.724 75.969 284.696 75.969C285.68 75.969 286.196 76.353 286.352 77.253H287.816C287.648 75.609 286.544 74.769 284.696 74.769C282.908 74.769 281.708 75.825 281.708 77.229C281.708 78.837 282.68 79.461 284.732 79.737C286.124 79.965 286.52 80.265 286.52 81.057C286.52 81.849 285.848 82.377 284.9 82.377C283.448 82.377 283.1 81.657 282.992 80.793H281.456C281.576 82.413 282.56 83.577 284.9 83.577ZM289.601 83.457H295.169V82.197H291.197V79.689H294.221V78.489H291.197V76.137H294.965V74.877H289.601V83.457ZM296.609 83.457H301.865V82.185H298.205V74.877H296.609V83.457ZM303.218 83.457H308.474V82.185H304.814V74.877H303.218V83.457Z" fill="#EA5E4B"/>
<path d="M280.3 118.899C280.3 118.545 280.013 118.257 279.658 118.257H272.642C272.288 118.257 272 118.545 272 118.899C272 119.254 272.288 119.542 272.642 119.542H274.927C276.241 119.542 275.767 120.826 274.453 120.826H272.642C272.288 120.826 272 121.114 272 121.469C272 121.824 272.288 122.111 272.642 122.111H274.453C275.767 122.111 276.241 123.396 274.927 123.396H272.863C272.386 123.396 272 123.782 272 124.259C272 124.525 272.123 124.776 272.333 124.94L276.392 128.103C276.651 128.305 277.014 128.305 277.273 128.103C277.642 127.816 277.642 127.259 277.273 126.972L274.801 125.046C274.648 124.927 274.733 124.681 274.927 124.681C276.664 124.681 278.153 123.84 278.759 122.653C278.915 122.348 279.206 122.111 279.548 122.111H279.658C280.013 122.111 280.3 121.824 280.3 121.469C280.3 121.114 280.013 120.826 279.658 120.826H279.337C279.119 120.826 278.934 120.684 278.851 120.482C278.688 120.091 278.93 119.542 279.354 119.542H279.681C280.023 119.542 280.3 119.265 280.3 118.923V118.899Z" fill="white" fill-opacity="0.7"/>
<path d="M289.859 129.371H291.049V127.271H292.435V126.277H291.049V119.361H289.425L284.847 126.879V127.271H289.859V129.371ZM286.387 126.277L289.859 120.285V126.277H286.387ZM297.689 128.489C296.023 128.489 294.959 127.173 294.959 124.639V124.079C294.959 121.615 295.967 120.215 297.661 120.215C299.355 120.215 300.335 121.727 300.335 124.051V124.611C300.335 127.145 299.439 128.489 297.689 128.489ZM297.689 129.497C300.153 129.497 301.567 127.537 301.567 124.625V124.065C301.567 121.209 300.125 119.235 297.661 119.235C295.211 119.235 293.713 121.139 293.713 124.093V124.653C293.713 127.565 295.295 129.497 297.689 129.497ZM307.218 128.489C305.552 128.489 304.488 127.173 304.488 124.639V124.079C304.488 121.615 305.496 120.215 307.19 120.215C308.884 120.215 309.864 121.727 309.864 124.051V124.611C309.864 127.145 308.968 128.489 307.218 128.489ZM307.218 129.497C309.682 129.497 311.096 127.537 311.096 124.625V124.065C311.096 121.209 309.654 119.235 307.19 119.235C304.74 119.235 303.242 121.139 303.242 124.093V124.653C303.242 127.565 304.824 129.497 307.218 129.497Z" fill="white" fill-opacity="0.7"/>
<rect x="155.5" y="64.2139" width="79" height="30.8857" rx="3.5" stroke="#EA5E4B"/>
<path d="M182.9 84.4628C184.796 84.4628 186.056 83.2988 186.056 81.8108C186.056 80.0948 185.012 79.5188 182.996 79.2428C181.508 79.0268 181.22 78.6788 181.22 77.9828C181.22 77.3228 181.724 76.8548 182.696 76.8548C183.68 76.8548 184.196 77.2388 184.352 78.1388H185.816C185.648 76.4948 184.544 75.6548 182.696 75.6548C180.908 75.6548 179.708 76.7108 179.708 78.1148C179.708 79.7228 180.68 80.3468 182.732 80.6228C184.124 80.8508 184.52 81.1508 184.52 81.9428C184.52 82.7348 183.848 83.2628 182.9 83.2628C181.448 83.2628 181.1 82.5428 180.992 81.6788H179.456C179.576 83.2988 180.56 84.4628 182.9 84.4628ZM187.601 84.3428H193.169V83.0828H189.197V80.5748H192.221V79.3748H189.197V77.0228H192.965V75.7628H187.601V84.3428ZM194.609 84.3428H199.865V83.0708H196.205V75.7628H194.609V84.3428ZM201.218 84.3428H206.474V83.0708H202.814V75.7628H201.218V84.3428Z" fill="#EA5E4B"/>
<path d="M178.3 118.899C178.3 118.545 178.013 118.257 177.658 118.257H170.642C170.288 118.257 170 118.545 170 118.899C170 119.254 170.288 119.542 170.642 119.542H172.927C174.241 119.542 173.767 120.826 172.453 120.826H170.642C170.288 120.826 170 121.114 170 121.469C170 121.824 170.288 122.111 170.642 122.111H172.453C173.767 122.111 174.241 123.396 172.927 123.396H170.863C170.386 123.396 170 123.782 170 124.259C170 124.525 170.123 124.776 170.333 124.94L174.392 128.103C174.651 128.305 175.014 128.305 175.273 128.103C175.642 127.816 175.642 127.259 175.273 126.972L172.801 125.046C172.648 124.927 172.733 124.681 172.927 124.681C174.664 124.681 176.153 123.84 176.759 122.653C176.915 122.348 177.206 122.111 177.548 122.111H177.658C178.013 122.111 178.3 121.824 178.3 121.469C178.3 121.114 178.013 120.826 177.658 120.826H177.337C177.119 120.826 176.934 120.684 176.851 120.482C176.688 120.091 176.93 119.542 177.354 119.542H177.681C178.023 119.542 178.3 119.265 178.3 118.923V118.899Z" fill="white" fill-opacity="0.7"/>
<path d="M187.859 129.371H189.049V127.271H190.435V126.277H189.049V119.361H187.425L182.847 126.879V127.271H187.859V129.371ZM184.387 126.277L187.859 120.285V126.277H184.387ZM195.689 128.489C194.023 128.489 192.959 127.173 192.959 124.639V124.079C192.959 121.615 193.967 120.215 195.661 120.215C197.355 120.215 198.335 121.727 198.335 124.051V124.611C198.335 127.145 197.439 128.489 195.689 128.489ZM195.689 129.497C198.153 129.497 199.567 127.537 199.567 124.625V124.065C199.567 121.209 198.125 119.235 195.661 119.235C193.211 119.235 191.713 121.139 191.713 124.093V124.653C191.713 127.565 193.295 129.497 195.689 129.497ZM205.218 128.489C203.552 128.489 202.488 127.173 202.488 124.639V124.079C202.488 121.615 203.496 120.215 205.19 120.215C206.884 120.215 207.864 121.727 207.864 124.051V124.611C207.864 127.145 206.968 128.489 205.218 128.489ZM205.218 129.497C207.682 129.497 209.096 127.537 209.096 124.625V124.065C209.096 121.209 207.654 119.235 205.19 119.235C202.74 119.235 201.242 121.139 201.242 124.093V124.653C201.242 127.565 202.824 129.497 205.218 129.497Z" fill="white" fill-opacity="0.7"/>
<path d="M0 160H460V316H0V160Z" fill="#14141C"/>
<rect x="395" y="171" width="40" height="22.1429" rx="4" fill="white" fill-opacity="0.14"/>
<path d="M405.14 187.2H406.184V178.62H405.14V187.2ZM408.408 187.2H409.404V179.844L413.736 187.2H414.936V178.62H413.94V185.712L409.764 178.62H408.408V187.2ZM418.136 186.348V179.46H419.3C421.664 179.46 422.624 180.852 422.624 182.832V182.928C422.624 185.028 421.52 186.348 419.312 186.348H418.136ZM417.092 187.2H419.336C422.336 187.2 423.704 185.316 423.704 182.94V182.832C423.704 180.444 422.312 178.62 419.36 178.62H417.092V187.2Z" fill="white" fill-opacity="0.7"/>
<path d="M20.476 197H25.426C28.252 197 29.836 195.794 29.836 193.4V193.328C29.836 191.618 29.008 190.664 27.262 190.286C28.72 189.836 29.296 188.828 29.296 187.55V187.478C29.296 185.138 27.73 184.13 25.084 184.13H20.476V197ZM22.816 195.29V191.168H24.976C26.74 191.168 27.478 191.834 27.478 193.166V193.238C27.478 194.57 26.74 195.29 25.138 195.29H22.816ZM22.816 189.548V185.84H24.76C26.29 185.84 26.992 186.362 26.992 187.586V187.658C26.992 188.972 26.38 189.548 24.796 189.548H22.816ZM34.3636 197.18C35.8036 197.18 36.6316 196.658 37.2436 195.848V197H39.3856V190.826C39.3856 188.252 37.7296 187.388 35.6236 187.388C33.5176 187.388 31.7716 188.306 31.5916 190.502H33.6976C33.8056 189.566 34.3636 189.026 35.4976 189.026C36.7756 189.026 37.2076 189.656 37.2076 190.916V191.402H36.0376C33.3376 191.402 31.2136 192.194 31.2136 194.39C31.2136 196.352 32.6356 197.18 34.3636 197.18ZM34.8856 195.614C33.8056 195.614 33.3736 195.092 33.3736 194.3C33.3736 193.148 34.4356 192.77 36.0916 192.77H37.2076V193.706C37.2076 194.912 36.2176 195.614 34.8856 195.614ZM41.9359 197H44.1139V183.23H41.9359V197ZM49.2347 197.18C50.6747 197.18 51.5027 196.658 52.1147 195.848V197H54.2567V190.826C54.2567 188.252 52.6007 187.388 50.4947 187.388C48.3887 187.388 46.6427 188.306 46.4627 190.502H48.5687C48.6767 189.566 49.2347 189.026 50.3687 189.026C51.6467 189.026 52.0787 189.656 52.0787 190.916V191.402H50.9087C48.2087 191.402 46.0847 192.194 46.0847 194.39C46.0847 196.352 47.5067 197.18 49.2347 197.18ZM49.7567 195.614C48.6767 195.614 48.2447 195.092 48.2447 194.3C48.2447 193.148 49.3067 192.77 50.9627 192.77H52.0787V193.706C52.0787 194.912 51.0887 195.614 49.7567 195.614ZM55.511 200.384C58.121 200.348 58.985 199.232 58.985 197.324V187.586H56.807V197.378C56.807 198.17 56.465 198.638 55.511 198.71V200.384ZM57.869 186.038C58.589 186.038 59.165 185.498 59.165 184.796C59.165 184.076 58.589 183.536 57.869 183.536C57.149 183.536 56.573 184.076 56.573 184.796C56.573 185.498 57.149 186.038 57.869 186.038ZM61.6938 197H63.8718V187.586H61.6938V197ZM62.7558 186.038C63.4758 186.038 64.0518 185.498 64.0518 184.796C64.0518 184.076 63.4758 183.536 62.7558 183.536C62.0358 183.536 61.4598 184.076 61.4598 184.796C61.4598 185.498 62.0358 186.038 62.7558 186.038ZM70.0055 197H72.2555L73.2635 193.814H78.1775L79.2035 197H81.6875L77.4395 184.13H74.3075L70.0055 197ZM75.7295 186.092L77.6195 192.068H73.8215L75.7295 186.092ZM83.4718 197H85.6498V191.366C85.6498 189.926 86.6398 189.206 87.7198 189.206C88.7818 189.206 89.3938 189.8 89.3938 191.186V197H91.5718V191.366C91.5718 189.926 92.5618 189.206 93.6418 189.206C94.7218 189.206 95.3158 189.8 95.3158 191.186V197H97.4938V191.042C97.4938 188.45 96.0898 187.388 94.3618 187.388C93.1918 187.388 91.8958 187.91 91.1758 189.08C90.7078 187.91 89.7358 187.388 88.5118 187.388C87.1258 187.388 86.0998 188.144 85.6498 189.026V187.586H83.4718V197ZM100.049 197H102.227V187.586H100.049V197ZM101.111 186.038C101.831 186.038 102.407 185.498 102.407 184.796C102.407 184.076 101.831 183.536 101.111 183.536C100.391 183.536 99.8152 184.076 99.8152 184.796C99.8152 185.498 100.391 186.038 101.111 186.038ZM104.882 197H107.06V191.456C107.06 189.962 108.05 189.206 109.274 189.206C110.57 189.206 111.146 189.854 111.146 191.276V197H113.324V191.078C113.324 188.486 111.992 187.388 110.102 187.388C108.554 187.388 107.51 188.162 107.06 189.08V187.586H104.882V197ZM119.973 197.18C122.385 197.18 123.987 196.1 124.293 194.12H122.187C122.025 195.038 121.341 195.56 120.027 195.56C118.407 195.56 117.507 194.552 117.435 192.77H124.329V192.14C124.329 188.774 122.223 187.388 119.883 187.388C117.201 187.388 115.203 189.332 115.203 192.248V192.392C115.203 195.362 117.201 197.18 119.973 197.18ZM117.471 191.312C117.687 189.854 118.569 188.972 119.883 188.972C121.233 188.972 122.061 189.692 122.169 191.312H117.471ZM129.584 197.18C131.996 197.18 133.346 196.082 133.346 194.174C133.346 192.176 132.032 191.636 129.818 191.294C128.324 191.042 127.874 190.772 127.874 190.088C127.874 189.422 128.432 188.972 129.368 188.972C130.376 188.972 130.862 189.368 131.042 190.232H133.058C132.824 188.108 131.294 187.388 129.368 187.388C127.604 187.388 125.84 188.324 125.84 190.214C125.84 191.978 126.758 192.68 129.242 193.076C130.628 193.31 131.258 193.598 131.258 194.372C131.258 195.164 130.736 195.578 129.566 195.578C128.288 195.578 127.802 195.02 127.694 194.066H125.642C125.732 196.064 127.154 197.18 129.584 197.18Z" fill="white"/>
<path d="M33.562 247.571H35.438V237.561H33.772L31.448 239.213V240.851L33.562 239.409V247.571ZM37.0752 247.571H44.3132V246.129H40.0572L42.2832 243.959C43.4732 242.811 44.2432 241.677 44.2432 240.375C44.2432 238.611 43.0112 237.421 40.9392 237.421C38.8252 237.421 37.5092 238.681 37.3832 240.865H39.0912C39.2592 239.451 39.8892 238.877 40.8832 238.877C41.8492 238.877 42.3812 239.465 42.3812 240.403C42.3812 241.355 41.8072 242.237 40.8552 243.245L37.0752 247.235V247.571ZM49.215 247.711C51.511 247.711 52.967 246.563 52.967 244.715C52.967 243.385 52.197 242.559 51.035 242.293C52.001 241.929 52.659 241.243 52.659 240.109C52.659 238.625 51.441 237.421 49.355 237.421C47.213 237.421 45.911 238.751 45.813 240.487H47.465C47.577 239.479 48.263 238.835 49.327 238.835C50.363 238.835 50.881 239.437 50.881 240.249C50.881 241.187 50.363 241.719 49.215 241.719H48.501V243.049H49.271C50.489 243.049 51.077 243.595 51.077 244.687C51.077 245.681 50.475 246.311 49.173 246.311C47.829 246.311 47.241 245.527 47.143 244.477H45.449C45.533 246.395 46.835 247.711 49.215 247.711ZM53.8916 247.571H61.1296V246.129H56.8736L59.0996 243.959C60.2896 242.811 61.0596 241.677 61.0596 240.375C61.0596 238.611 59.8276 237.421 57.7556 237.421C55.6416 237.421 54.3256 238.681 54.1996 240.865H55.9076C56.0756 239.451 56.7056 238.877 57.6996 238.877C58.6656 238.877 59.1976 239.465 59.1976 240.403C59.1976 241.355 58.6236 242.237 57.6716 243.245L53.8916 247.235V247.571Z" fill="white"/>
<path d="M27 236.289C27 235.893 26.6786 235.571 26.282 235.571H19.718C19.3214 235.571 19 235.893 19 236.289C19 236.686 19.3214 237.007 19.718 237.007H21.8212C23.1811 237.007 22.5982 238.443 21.2383 238.443H19.718C19.3214 238.443 19 238.765 19 239.161C19 239.558 19.3214 239.879 19.718 239.879H21.2383C22.5982 239.879 23.1811 241.315 21.8212 241.315H19.9942C19.4451 241.315 19 241.76 19 242.309C19 242.59 19.1191 242.858 19.3277 243.047L23.153 246.503C23.4398 246.762 23.8763 246.762 24.1631 246.503C24.4942 246.204 24.4942 245.684 24.1631 245.385L21.6733 243.135C21.5233 243 21.6192 242.751 21.8212 242.751C23.5211 242.751 24.9751 241.781 25.5415 240.422C25.6699 240.114 25.9519 239.879 26.2858 239.879C26.6803 239.879 27 239.555 27 239.161C27 238.767 26.6803 238.443 26.2858 238.443H26.1563C25.8982 238.443 25.6788 238.261 25.5887 238.02C25.4254 237.581 25.7083 237.007 26.1764 237.007H26.3612C26.714 237.007 27 236.721 27 236.368V236.289Z" fill="white"/>
<rect x="355.5" y="224.5" width="79" height="30.8857" rx="3.5" stroke="#EA5E4B"/>
<path d="M384.9 243.12C386.796 243.12 388.056 241.956 388.056 240.468C388.056 238.752 387.012 238.176 384.996 237.9C383.508 237.684 383.22 237.336 383.22 236.64C383.22 235.98 383.724 235.512 384.696 235.512C385.68 235.512 386.196 235.896 386.352 236.796H387.816C387.648 235.152 386.544 234.312 384.696 234.312C382.908 234.312 381.708 235.368 381.708 236.772C381.708 238.38 382.68 239.004 384.732 239.28C386.124 239.508 386.52 239.808 386.52 240.6C386.52 241.392 385.848 241.92 384.9 241.92C383.448 241.92 383.1 241.2 382.992 240.336H381.456C381.576 241.956 382.56 243.12 384.9 243.12ZM389.601 243H395.169V241.74H391.197V239.232H394.221V238.032H391.197V235.68H394.965V234.42H389.601V243ZM396.609 243H401.865V241.728H398.205V234.42H396.609V243ZM403.218 243H408.474V241.728H404.814V234.42H403.218V243Z" fill="#EA5E4B"/>
<path d="M382.3 278.899C382.3 278.545 382.013 278.257 381.658 278.257H374.642C374.288 278.257 374 278.545 374 278.899C374 279.254 374.288 279.542 374.642 279.542H376.927C378.241 279.542 377.767 280.826 376.453 280.826H374.642C374.288 280.826 374 281.114 374 281.469C374 281.824 374.288 282.111 374.642 282.111H376.453C377.767 282.111 378.241 283.396 376.927 283.396H374.863C374.386 283.396 374 283.782 374 284.259C374 284.525 374.123 284.776 374.333 284.94L378.392 288.103C378.651 288.305 379.014 288.305 379.273 288.103C379.642 287.816 379.642 287.259 379.273 286.972L376.801 285.046C376.648 284.927 376.733 284.681 376.927 284.681C378.664 284.681 380.153 283.84 380.759 282.653C380.915 282.348 381.206 282.111 381.548 282.111H381.658C382.013 282.111 382.3 281.824 382.3 281.469C382.3 281.114 382.013 280.826 381.658 280.826H381.337C381.119 280.826 380.934 280.684 380.851 280.482C380.688 280.091 380.93 279.542 381.354 279.542H381.681C382.023 279.542 382.3 279.265 382.3 278.923V278.899Z" fill="white" fill-opacity="0.7"/>
<path d="M391.859 289.371H393.049V287.271H394.435V286.277H393.049V279.361H391.425L386.847 286.879V287.271H391.859V289.371ZM388.387 286.277L391.859 280.285V286.277H388.387ZM399.689 288.489C398.023 288.489 396.959 287.173 396.959 284.639V284.079C396.959 281.615 397.967 280.215 399.661 280.215C401.355 280.215 402.335 281.727 402.335 284.051V284.611C402.335 287.145 401.439 288.489 399.689 288.489ZM399.689 289.497C402.153 289.497 403.567 287.537 403.567 284.625V284.065C403.567 281.209 402.125 279.235 399.661 279.235C397.211 279.235 395.713 281.139 395.713 284.093V284.653C395.713 287.565 397.295 289.497 399.689 289.497ZM409.218 288.489C407.552 288.489 406.488 287.173 406.488 284.639V284.079C406.488 281.615 407.496 280.215 409.19 280.215C410.884 280.215 411.864 281.727 411.864 284.051V284.611C411.864 287.145 410.968 288.489 409.218 288.489ZM409.218 289.497C411.682 289.497 413.096 287.537 413.096 284.625V284.065C413.096 281.209 411.654 279.235 409.19 279.235C406.74 279.235 405.242 281.139 405.242 284.093V284.653C405.242 287.565 406.824 289.497 409.218 289.497Z" fill="white" fill-opacity="0.7"/>
<path d="M23.494 290.726C25.482 290.726 26.952 289.452 26.952 287.772C26.952 285.882 25.776 285.21 23.55 284.86C21.506 284.552 21.142 284.048 21.142 283.068C21.142 282.13 21.856 281.444 23.228 281.444C24.614 281.444 25.342 281.962 25.58 283.222H26.672C26.476 281.444 25.23 280.464 23.228 280.464C21.338 280.464 20.008 281.64 20.008 283.18C20.008 284.958 21.254 285.616 23.354 285.938C25.258 286.246 25.776 286.722 25.776 287.856C25.776 288.99 24.782 289.746 23.494 289.746C21.478 289.746 21.002 288.738 20.848 287.548H19.672C19.854 289.256 20.82 290.726 23.494 290.726ZM31.1793 290.698C31.6553 290.698 31.9353 290.628 32.1733 290.544V289.564C31.9213 289.662 31.6413 289.718 31.2773 289.718C30.6893 289.718 30.3673 289.368 30.3673 288.654V284.258H32.0753V283.278H30.3673V281.612H29.2053V283.278H28.1553V284.258H29.2053V288.766C29.2053 289.914 29.8493 290.698 31.1793 290.698ZM36.9819 289.76C35.4979 289.76 34.5879 288.668 34.5879 287.002V286.89C34.5879 285.21 35.5119 284.118 36.9819 284.118C38.4379 284.118 39.3759 285.21 39.3759 286.904V287.002C39.3759 288.654 38.4519 289.76 36.9819 289.76ZM36.9679 290.726C39.0539 290.726 40.5799 289.2 40.5799 286.988V286.876C40.5799 284.678 39.0539 283.152 36.9819 283.152C34.9099 283.152 33.3839 284.692 33.3839 286.89V287.002C33.3839 289.144 34.8819 290.726 36.9679 290.726ZM42.3791 293.148H43.5411V289.396C43.9611 290.124 44.8151 290.726 46.0191 290.726C48.0351 290.726 49.3511 289.186 49.3511 286.946V286.834C49.3511 284.552 47.9371 283.152 46.0191 283.152C44.9551 283.152 43.9611 283.796 43.5411 284.51V283.278H42.3791V293.148ZM45.9071 289.76C44.4791 289.76 43.4991 288.878 43.4991 287.002V286.89C43.4991 285.014 44.5351 284.118 45.8931 284.118C47.1251 284.118 48.1471 285.042 48.1471 286.89V287.002C48.1471 288.78 47.3631 289.76 45.9071 289.76ZM50.8205 287.296H53.8165V286.204H50.8205V287.296ZM55.9163 290.6H61.7123V289.606H57.1343V280.59H55.9163V290.6ZM66.2397 289.76C64.7557 289.76 63.8457 288.668 63.8457 287.002V286.89C63.8457 285.21 64.7697 284.118 66.2397 284.118C67.6957 284.118 68.6337 285.21 68.6337 286.904V287.002C68.6337 288.654 67.7097 289.76 66.2397 289.76ZM66.2257 290.726C68.3117 290.726 69.8377 289.2 69.8377 286.988V286.876C69.8377 284.678 68.3117 283.152 66.2397 283.152C64.1677 283.152 62.6417 284.692 62.6417 286.89V287.002C62.6417 289.144 64.1397 290.726 66.2257 290.726ZM73.9049 290.726C75.6829 290.726 76.5929 289.83 76.5929 288.5C76.5929 286.946 75.5289 286.61 74.0169 286.33C72.6729 286.092 72.3089 285.826 72.3089 285.168C72.3089 284.538 72.8549 284.118 73.6949 284.118C74.6189 284.118 75.0669 284.468 75.2349 285.266H76.3549C76.1589 283.684 75.0249 283.152 73.7089 283.152C72.5609 283.152 71.2309 283.852 71.2309 285.21C71.2309 286.484 71.8749 287.016 73.7789 287.366C74.9129 287.576 75.4869 287.828 75.4869 288.598C75.4869 289.382 74.9969 289.76 73.8909 289.76C72.7149 289.76 72.2529 289.214 72.1689 288.346H71.0349C71.1049 289.844 72.1549 290.726 73.9049 290.726ZM80.6315 290.726C82.4095 290.726 83.3195 289.83 83.3195 288.5C83.3195 286.946 82.2555 286.61 80.7435 286.33C79.3995 286.092 79.0355 285.826 79.0355 285.168C79.0355 284.538 79.5815 284.118 80.4215 284.118C81.3455 284.118 81.7935 284.468 81.9615 285.266H83.0815C82.8855 283.684 81.7515 283.152 80.4355 283.152C79.2875 283.152 77.9575 283.852 77.9575 285.21C77.9575 286.484 78.6015 287.016 80.5055 287.366C81.6395 287.576 82.2135 287.828 82.2135 288.598C82.2135 289.382 81.7235 289.76 80.6175 289.76C79.4415 289.76 78.9795 289.214 78.8955 288.346H77.7615C77.8315 289.844 78.8815 290.726 80.6315 290.726Z" fill="white" fill-opacity="0.7"/>
<rect x="255.5" y="224.214" width="79" height="30.8857" rx="3.5" stroke="#EA5E4B"/>
<path d="M284.9 243.577C286.796 243.577 288.056 242.413 288.056 240.925C288.056 239.209 287.012 238.633 284.996 238.357C283.508 238.141 283.22 237.793 283.22 237.097C283.22 236.437 283.724 235.969 284.696 235.969C285.68 235.969 286.196 236.353 286.352 237.253H287.816C287.648 235.609 286.544 234.769 284.696 234.769C282.908 234.769 281.708 235.825 281.708 237.229C281.708 238.837 282.68 239.461 284.732 239.737C286.124 239.965 286.52 240.265 286.52 241.057C286.52 241.849 285.848 242.377 284.9 242.377C283.448 242.377 283.1 241.657 282.992 240.793H281.456C281.576 242.413 282.56 243.577 284.9 243.577ZM289.601 243.457H295.169V242.197H291.197V239.689H294.221V238.489H291.197V236.137H294.965V234.877H289.601V243.457ZM296.609 243.457H301.865V242.185H298.205V234.877H296.609V243.457ZM303.218 243.457H308.474V242.185H304.814V234.877H303.218V243.457Z" fill="#EA5E4B"/>
<path d="M280.3 278.899C280.3 278.545 280.013 278.257 279.658 278.257H272.642C272.288 278.257 272 278.545 272 278.899C272 279.254 272.288 279.542 272.642 279.542H274.927C276.241 279.542 275.767 280.826 274.453 280.826H272.642C272.288 280.826 272 281.114 272 281.469C272 281.824 272.288 282.111 272.642 282.111H274.453C275.767 282.111 276.241 283.396 274.927 283.396H272.863C272.386 283.396 272 283.782 272 284.259C272 284.525 272.123 284.776 272.333 284.94L276.392 288.103C276.651 288.305 277.014 288.305 277.273 288.103C277.642 287.816 277.642 287.259 277.273 286.972L274.801 285.046C274.648 284.927 274.733 284.681 274.927 284.681C276.664 284.681 278.153 283.84 278.759 282.653C278.915 282.348 279.206 282.111 279.548 282.111H279.658C280.013 282.111 280.3 281.824 280.3 281.469C280.3 281.114 280.013 280.826 279.658 280.826H279.337C279.119 280.826 278.934 280.684 278.851 280.482C278.688 280.091 278.93 279.542 279.354 279.542H279.681C280.023 279.542 280.3 279.265 280.3 278.923V278.899Z" fill="white" fill-opacity="0.7"/>
<path d="M289.859 289.371H291.049V287.271H292.435V286.277H291.049V279.361H289.425L284.847 286.879V287.271H289.859V289.371ZM286.387 286.277L289.859 280.285V286.277H286.387ZM297.689 288.489C296.023 288.489 294.959 287.173 294.959 284.639V284.079C294.959 281.615 295.967 280.215 297.661 280.215C299.355 280.215 300.335 281.727 300.335 284.051V284.611C300.335 287.145 299.439 288.489 297.689 288.489ZM297.689 289.497C300.153 289.497 301.567 287.537 301.567 284.625V284.065C301.567 281.209 300.125 279.235 297.661 279.235C295.211 279.235 293.713 281.139 293.713 284.093V284.653C293.713 287.565 295.295 289.497 297.689 289.497ZM307.218 288.489C305.552 288.489 304.488 287.173 304.488 284.639V284.079C304.488 281.615 305.496 280.215 307.19 280.215C308.884 280.215 309.864 281.727 309.864 284.051V284.611C309.864 287.145 308.968 288.489 307.218 288.489ZM307.218 289.497C309.682 289.497 311.096 287.537 311.096 284.625V284.065C311.096 281.209 309.654 279.235 307.19 279.235C304.74 279.235 303.242 281.139 303.242 284.093V284.653C303.242 287.565 304.824 289.497 307.218 289.497Z" fill="white" fill-opacity="0.7"/>
<rect x="155.5" y="224.214" width="79" height="30.8857" rx="3.5" stroke="#EA5E4B"/>
<path d="M182.9 244.463C184.796 244.463 186.056 243.299 186.056 241.811C186.056 240.095 185.012 239.519 182.996 239.243C181.508 239.027 181.22 238.679 181.22 237.983C181.22 237.323 181.724 236.855 182.696 236.855C183.68 236.855 184.196 237.239 184.352 238.139H185.816C185.648 236.495 184.544 235.655 182.696 235.655C180.908 235.655 179.708 236.711 179.708 238.115C179.708 239.723 180.68 240.347 182.732 240.623C184.124 240.851 184.52 241.151 184.52 241.943C184.52 242.735 183.848 243.263 182.9 243.263C181.448 243.263 181.1 242.543 180.992 241.679H179.456C179.576 243.299 180.56 244.463 182.9 244.463ZM187.601 244.343H193.169V243.083H189.197V240.575H192.221V239.375H189.197V237.023H192.965V235.763H187.601V244.343ZM194.609 244.343H199.865V243.071H196.205V235.763H194.609V244.343ZM201.218 244.343H206.474V243.071H202.814V235.763H201.218V244.343Z" fill="#EA5E4B"/>
<path d="M178.3 278.899C178.3 278.545 178.013 278.257 177.658 278.257H170.642C170.288 278.257 170 278.545 170 278.899C170 279.254 170.288 279.542 170.642 279.542H172.927C174.241 279.542 173.767 280.826 172.453 280.826H170.642C170.288 280.826 170 281.114 170 281.469C170 281.824 170.288 282.111 170.642 282.111H172.453C173.767 282.111 174.241 283.396 172.927 283.396H170.863C170.386 283.396 170 283.782 170 284.259C170 284.525 170.123 284.776 170.333 284.94L174.392 288.103C174.651 288.305 175.014 288.305 175.273 288.103C175.642 287.816 175.642 287.259 175.273 286.972L172.801 285.046C172.648 284.927 172.733 284.681 172.927 284.681C174.664 284.681 176.153 283.84 176.759 282.653C176.915 282.348 177.206 282.111 177.548 282.111H177.658C178.013 282.111 178.3 281.824 178.3 281.469C178.3 281.114 178.013 280.826 177.658 280.826H177.337C177.119 280.826 176.934 280.684 176.851 280.482C176.688 280.091 176.93 279.542 177.354 279.542H177.681C178.023 279.542 178.3 279.265 178.3 278.923V278.899Z" fill="white" fill-opacity="0.7"/>
<path d="M187.859 289.371H189.049V287.271H190.435V286.277H189.049V279.361H187.425L182.847 286.879V287.271H187.859V289.371ZM184.387 286.277L187.859 280.285V286.277H184.387ZM195.689 288.489C194.023 288.489 192.959 287.173 192.959 284.639V284.079C192.959 281.615 193.967 280.215 195.661 280.215C197.355 280.215 198.335 281.727 198.335 284.051V284.611C198.335 287.145 197.439 288.489 195.689 288.489ZM195.689 289.497C198.153 289.497 199.567 287.537 199.567 284.625V284.065C199.567 281.209 198.125 279.235 195.661 279.235C193.211 279.235 191.713 281.139 191.713 284.093V284.653C191.713 287.565 193.295 289.497 195.689 289.497ZM205.218 288.489C203.552 288.489 202.488 287.173 202.488 284.639V284.079C202.488 281.615 203.496 280.215 205.19 280.215C206.884 280.215 207.864 281.727 207.864 284.051V284.611C207.864 287.145 206.968 288.489 205.218 288.489ZM205.218 289.497C207.682 289.497 209.096 287.537 209.096 284.625V284.065C209.096 281.209 207.654 279.235 205.19 279.235C202.74 279.235 201.242 281.139 201.242 284.093V284.653C201.242 287.565 202.824 289.497 205.218 289.497Z" fill="white" fill-opacity="0.7"/>
<path d="M0 320H460V476H0V320Z" fill="#14141C"/>
<rect x="395" y="331" width="40" height="22.1429" rx="4" fill="white" fill-opacity="0.14"/>
<path d="M405.14 347.2H406.184V338.62H405.14V347.2ZM408.408 347.2H409.404V339.844L413.736 347.2H414.936V338.62H413.94V345.712L409.764 338.62H408.408V347.2ZM418.136 346.348V339.46H419.3C421.664 339.46 422.624 340.852 422.624 342.832V342.928C422.624 345.028 421.52 346.348 419.312 346.348H418.136ZM417.092 347.2H419.336C422.336 347.2 423.704 345.316 423.704 342.94V342.832C423.704 340.444 422.312 338.62 419.36 338.62H417.092V347.2Z" fill="white" fill-opacity="0.7"/>
<path d="M20.476 357H25.426C28.252 357 29.836 355.794 29.836 353.4V353.328C29.836 351.618 29.008 350.664 27.262 350.286C28.72 349.836 29.296 348.828 29.296 347.55V347.478C29.296 345.138 27.73 344.13 25.084 344.13H20.476V357ZM22.816 355.29V351.168H24.976C26.74 351.168 27.478 351.834 27.478 353.166V353.238C27.478 354.57 26.74 355.29 25.138 355.29H22.816ZM22.816 349.548V345.84H24.76C26.29 345.84 26.992 346.362 26.992 347.586V347.658C26.992 348.972 26.38 349.548 24.796 349.548H22.816ZM34.3636 357.18C35.8036 357.18 36.6316 356.658 37.2436 355.848V357H39.3856V350.826C39.3856 348.252 37.7296 347.388 35.6236 347.388C33.5176 347.388 31.7716 348.306 31.5916 350.502H33.6976C33.8056 349.566 34.3636 349.026 35.4976 349.026C36.7756 349.026 37.2076 349.656 37.2076 350.916V351.402H36.0376C33.3376 351.402 31.2136 352.194 31.2136 354.39C31.2136 356.352 32.6356 357.18 34.3636 357.18ZM34.8856 355.614C33.8056 355.614 33.3736 355.092 33.3736 354.3C33.3736 353.148 34.4356 352.77 36.0916 352.77H37.2076V353.706C37.2076 354.912 36.2176 355.614 34.8856 355.614ZM41.9359 357H44.1139V343.23H41.9359V357ZM49.2347 357.18C50.6747 357.18 51.5027 356.658 52.1147 355.848V357H54.2567V350.826C54.2567 348.252 52.6007 347.388 50.4947 347.388C48.3887 347.388 46.6427 348.306 46.4627 350.502H48.5687C48.6767 349.566 49.2347 349.026 50.3687 349.026C51.6467 349.026 52.0787 349.656 52.0787 350.916V351.402H50.9087C48.2087 351.402 46.0847 352.194 46.0847 354.39C46.0847 356.352 47.5067 357.18 49.2347 357.18ZM49.7567 355.614C48.6767 355.614 48.2447 355.092 48.2447 354.3C48.2447 353.148 49.3067 352.77 50.9627 352.77H52.0787V353.706C52.0787 354.912 51.0887 355.614 49.7567 355.614ZM55.511 360.384C58.121 360.348 58.985 359.232 58.985 357.324V347.586H56.807V357.378C56.807 358.17 56.465 358.638 55.511 358.71V360.384ZM57.869 346.038C58.589 346.038 59.165 345.498 59.165 344.796C59.165 344.076 58.589 343.536 57.869 343.536C57.149 343.536 56.573 344.076 56.573 344.796C56.573 345.498 57.149 346.038 57.869 346.038ZM61.6938 357H63.8718V347.586H61.6938V357ZM62.7558 346.038C63.4758 346.038 64.0518 345.498 64.0518 344.796C64.0518 344.076 63.4758 343.536 62.7558 343.536C62.0358 343.536 61.4598 344.076 61.4598 344.796C61.4598 345.498 62.0358 346.038 62.7558 346.038ZM70.0055 357H72.2555L73.2635 353.814H78.1775L79.2035 357H81.6875L77.4395 344.13H74.3075L70.0055 357ZM75.7295 346.092L77.6195 352.068H73.8215L75.7295 346.092ZM83.4718 357H85.6498V351.366C85.6498 349.926 86.6398 349.206 87.7198 349.206C88.7818 349.206 89.3938 349.8 89.3938 351.186V357H91.5718V351.366C91.5718 349.926 92.5618 349.206 93.6418 349.206C94.7218 349.206 95.3158 349.8 95.3158 351.186V357H97.4938V351.042C97.4938 348.45 96.0898 347.388 94.3618 347.388C93.1918 347.388 91.8958 347.91 91.1758 349.08C90.7078 347.91 89.7358 347.388 88.5118 347.388C87.1258 347.388 86.0998 348.144 85.6498 349.026V347.586H83.4718V357ZM100.049 357H102.227V347.586H100.049V357ZM101.111 346.038C101.831 346.038 102.407 345.498 102.407 344.796C102.407 344.076 101.831 343.536 101.111 343.536C100.391 343.536 99.8152 344.076 99.8152 344.796C99.8152 345.498 100.391 346.038 101.111 346.038ZM104.882 357H107.06V351.456C107.06 349.962 108.05 349.206 109.274 349.206C110.57 349.206 111.146 349.854 111.146 351.276V357H113.324V351.078C113.324 348.486 111.992 347.388 110.102 347.388C108.554 347.388 107.51 348.162 107.06 349.08V347.586H104.882V357ZM119.973 357.18C122.385 357.18 123.987 356.1 124.293 354.12H122.187C122.025 355.038 121.341 355.56 120.027 355.56C118.407 355.56 117.507 354.552 117.435 352.77H124.329V352.14C124.329 348.774 122.223 347.388 119.883 347.388C117.201 347.388 115.203 349.332 115.203 352.248V352.392C115.203 355.362 117.201 357.18 119.973 357.18ZM117.471 351.312C117.687 349.854 118.569 348.972 119.883 348.972C121.233 348.972 122.061 349.692 122.169 351.312H117.471ZM129.584 357.18C131.996 357.18 133.346 356.082 133.346 354.174C133.346 352.176 132.032 351.636 129.818 351.294C128.324 351.042 127.874 350.772 127.874 350.088C127.874 349.422 128.432 348.972 129.368 348.972C130.376 348.972 130.862 349.368 131.042 350.232H133.058C132.824 348.108 131.294 347.388 129.368 347.388C127.604 347.388 125.84 348.324 125.84 350.214C125.84 351.978 126.758 352.68 129.242 353.076C130.628 353.31 131.258 353.598 131.258 354.372C131.258 355.164 130.736 355.578 129.566 355.578C128.288 355.578 127.802 355.02 127.694 354.066H125.642C125.732 356.064 127.154 357.18 129.584 357.18Z" fill="white"/>
<path d="M33.562 407.571H35.438V397.561H33.772L31.448 399.213V400.851L33.562 399.409V407.571ZM37.0752 407.571H44.3132V406.129H40.0572L42.2832 403.959C43.4732 402.811 44.2432 401.677 44.2432 400.375C44.2432 398.611 43.0112 397.421 40.9392 397.421C38.8252 397.421 37.5092 398.681 37.3832 400.865H39.0912C39.2592 399.451 39.8892 398.877 40.8832 398.877C41.8492 398.877 42.3812 399.465 42.3812 400.403C42.3812 401.355 41.8072 402.237 40.8552 403.245L37.0752 407.235V407.571ZM49.215 407.711C51.511 407.711 52.967 406.563 52.967 404.715C52.967 403.385 52.197 402.559 51.035 402.293C52.001 401.929 52.659 401.243 52.659 400.109C52.659 398.625 51.441 397.421 49.355 397.421C47.213 397.421 45.911 398.751 45.813 400.487H47.465C47.577 399.479 48.263 398.835 49.327 398.835C50.363 398.835 50.881 399.437 50.881 400.249C50.881 401.187 50.363 401.719 49.215 401.719H48.501V403.049H49.271C50.489 403.049 51.077 403.595 51.077 404.687C51.077 405.681 50.475 406.311 49.173 406.311C47.829 406.311 47.241 405.527 47.143 404.477H45.449C45.533 406.395 46.835 407.711 49.215 407.711ZM53.8916 407.571H61.1296V406.129H56.8736L59.0996 403.959C60.2896 402.811 61.0596 401.677 61.0596 400.375C61.0596 398.611 59.8276 397.421 57.7556 397.421C55.6416 397.421 54.3256 398.681 54.1996 400.865H55.9076C56.0756 399.451 56.7056 398.877 57.6996 398.877C58.6656 398.877 59.1976 399.465 59.1976 400.403C59.1976 401.355 58.6236 402.237 57.6716 403.245L53.8916 407.235V407.571Z" fill="white"/>
<path d="M27 396.289C27 395.893 26.6786 395.571 26.282 395.571H19.718C19.3214 395.571 19 395.893 19 396.289C19 396.686 19.3214 397.007 19.718 397.007H21.8212C23.1811 397.007 22.5982 398.443 21.2383 398.443H19.718C19.3214 398.443 19 398.765 19 399.161C19 399.558 19.3214 399.879 19.718 399.879H21.2383C22.5982 399.879 23.1811 401.315 21.8212 401.315H19.9942C19.4451 401.315 19 401.76 19 402.309C19 402.59 19.1191 402.858 19.3277 403.047L23.153 406.503C23.4398 406.762 23.8763 406.762 24.1631 406.503C24.4942 406.204 24.4942 405.684 24.1631 405.385L21.6733 403.135C21.5233 403 21.6192 402.751 21.8212 402.751C23.5211 402.751 24.9751 401.781 25.5415 400.422C25.6699 400.114 25.9519 399.879 26.2858 399.879C26.6803 399.879 27 399.555 27 399.161C27 398.767 26.6803 398.443 26.2858 398.443H26.1563C25.8982 398.443 25.6788 398.261 25.5887 398.02C25.4254 397.581 25.7083 397.007 26.1764 397.007H26.3612C26.714 397.007 27 396.721 27 396.368V396.289Z" fill="white"/>
<rect x="355.5" y="384.5" width="79" height="30.8857" rx="3.5" stroke="#EA5E4B"/>
<path d="M384.9 403.12C386.796 403.12 388.056 401.956 388.056 400.468C388.056 398.752 387.012 398.176 384.996 397.9C383.508 397.684 383.22 397.336 383.22 396.64C383.22 395.98 383.724 395.512 384.696 395.512C385.68 395.512 386.196 395.896 386.352 396.796H387.816C387.648 395.152 386.544 394.312 384.696 394.312C382.908 394.312 381.708 395.368 381.708 396.772C381.708 398.38 382.68 399.004 384.732 399.28C386.124 399.508 386.52 399.808 386.52 400.6C386.52 401.392 385.848 401.92 384.9 401.92C383.448 401.92 383.1 401.2 382.992 400.336H381.456C381.576 401.956 382.56 403.12 384.9 403.12ZM389.601 403H395.169V401.74H391.197V399.232H394.221V398.032H391.197V395.68H394.965V394.42H389.601V403ZM396.609 403H401.865V401.728H398.205V394.42H396.609V403ZM403.218 403H408.474V401.728H404.814V394.42H403.218V403Z" fill="#EA5E4B"/>
<path d="M382.3 438.899C382.3 438.545 382.013 438.257 381.658 438.257H374.642C374.288 438.257 374 438.545 374 438.899C374 439.254 374.288 439.542 374.642 439.542H376.927C378.241 439.542 377.767 440.826 376.453 440.826H374.642C374.288 440.826 374 441.114 374 441.469C374 441.824 374.288 442.111 374.642 442.111H376.453C377.767 442.111 378.241 443.396 376.927 443.396H374.863C374.386 443.396 374 443.782 374 444.259C374 444.525 374.123 444.776 374.333 444.94L378.392 448.103C378.651 448.305 379.014 448.305 379.273 448.103C379.642 447.816 379.642 447.259 379.273 446.972L376.801 445.046C376.648 444.927 376.733 444.681 376.927 444.681C378.664 444.681 380.153 443.84 380.759 442.653C380.915 442.348 381.206 442.111 381.548 442.111H381.658C382.013 442.111 382.3 441.824 382.3 441.469C382.3 441.114 382.013 440.826 381.658 440.826H381.337C381.119 440.826 380.934 440.684 380.851 440.482C380.688 440.091 380.93 439.542 381.354 439.542H381.681C382.023 439.542 382.3 439.265 382.3 438.923V438.899Z" fill="white" fill-opacity="0.7"/>
<path d="M391.859 449.371H393.049V447.271H394.435V446.277H393.049V439.361H391.425L386.847 446.879V447.271H391.859V449.371ZM388.387 446.277L391.859 440.285V446.277H388.387ZM399.689 448.489C398.023 448.489 396.959 447.173 396.959 444.639V444.079C396.959 441.615 397.967 440.215 399.661 440.215C401.355 440.215 402.335 441.727 402.335 444.051V444.611C402.335 447.145 401.439 448.489 399.689 448.489ZM399.689 449.497C402.153 449.497 403.567 447.537 403.567 444.625V444.065C403.567 441.209 402.125 439.235 399.661 439.235C397.211 439.235 395.713 441.139 395.713 444.093V444.653C395.713 447.565 397.295 449.497 399.689 449.497ZM409.218 448.489C407.552 448.489 406.488 447.173 406.488 444.639V444.079C406.488 441.615 407.496 440.215 409.19 440.215C410.884 440.215 411.864 441.727 411.864 444.051V444.611C411.864 447.145 410.968 448.489 409.218 448.489ZM409.218 449.497C411.682 449.497 413.096 447.537 413.096 444.625V444.065C413.096 441.209 411.654 439.235 409.19 439.235C406.74 439.235 405.242 441.139 405.242 444.093V444.653C405.242 447.565 406.824 449.497 409.218 449.497Z" fill="white" fill-opacity="0.7"/>
<path d="M23.494 450.726C25.482 450.726 26.952 449.452 26.952 447.772C26.952 445.882 25.776 445.21 23.55 444.86C21.506 444.552 21.142 444.048 21.142 443.068C21.142 442.13 21.856 441.444 23.228 441.444C24.614 441.444 25.342 441.962 25.58 443.222H26.672C26.476 441.444 25.23 440.464 23.228 440.464C21.338 440.464 20.008 441.64 20.008 443.18C20.008 444.958 21.254 445.616 23.354 445.938C25.258 446.246 25.776 446.722 25.776 447.856C25.776 448.99 24.782 449.746 23.494 449.746C21.478 449.746 21.002 448.738 20.848 447.548H19.672C19.854 449.256 20.82 450.726 23.494 450.726ZM31.1793 450.698C31.6553 450.698 31.9353 450.628 32.1733 450.544V449.564C31.9213 449.662 31.6413 449.718 31.2773 449.718C30.6893 449.718 30.3673 449.368 30.3673 448.654V444.258H32.0753V443.278H30.3673V441.612H29.2053V443.278H28.1553V444.258H29.2053V448.766C29.2053 449.914 29.8493 450.698 31.1793 450.698ZM36.9819 449.76C35.4979 449.76 34.5879 448.668 34.5879 447.002V446.89C34.5879 445.21 35.5119 444.118 36.9819 444.118C38.4379 444.118 39.3759 445.21 39.3759 446.904V447.002C39.3759 448.654 38.4519 449.76 36.9819 449.76ZM36.9679 450.726C39.0539 450.726 40.5799 449.2 40.5799 446.988V446.876C40.5799 444.678 39.0539 443.152 36.9819 443.152C34.9099 443.152 33.3839 444.692 33.3839 446.89V447.002C33.3839 449.144 34.8819 450.726 36.9679 450.726ZM42.3791 453.148H43.5411V449.396C43.9611 450.124 44.8151 450.726 46.0191 450.726C48.0351 450.726 49.3511 449.186 49.3511 446.946V446.834C49.3511 444.552 47.9371 443.152 46.0191 443.152C44.9551 443.152 43.9611 443.796 43.5411 444.51V443.278H42.3791V453.148ZM45.9071 449.76C44.4791 449.76 43.4991 448.878 43.4991 447.002V446.89C43.4991 445.014 44.5351 444.118 45.8931 444.118C47.1251 444.118 48.1471 445.042 48.1471 446.89V447.002C48.1471 448.78 47.3631 449.76 45.9071 449.76ZM50.8205 447.296H53.8165V446.204H50.8205V447.296ZM55.9163 450.6H61.7123V449.606H57.1343V440.59H55.9163V450.6ZM66.2397 449.76C64.7557 449.76 63.8457 448.668 63.8457 447.002V446.89C63.8457 445.21 64.7697 444.118 66.2397 444.118C67.6957 444.118 68.6337 445.21 68.6337 446.904V447.002C68.6337 448.654 67.7097 449.76 66.2397 449.76ZM66.2257 450.726C68.3117 450.726 69.8377 449.2 69.8377 446.988V446.876C69.8377 444.678 68.3117 443.152 66.2397 443.152C64.1677 443.152 62.6417 444.692 62.6417 446.89V447.002C62.6417 449.144 64.1397 450.726 66.2257 450.726ZM73.9049 450.726C75.6829 450.726 76.5929 449.83 76.5929 448.5C76.5929 446.946 75.5289 446.61 74.0169 446.33C72.6729 446.092 72.3089 445.826 72.3089 445.168C72.3089 444.538 72.8549 444.118 73.6949 444.118C74.6189 444.118 75.0669 444.468 75.2349 445.266H76.3549C76.1589 443.684 75.0249 443.152 73.7089 443.152C72.5609 443.152 71.2309 443.852 71.2309 445.21C71.2309 446.484 71.8749 447.016 73.7789 447.366C74.9129 447.576 75.4869 447.828 75.4869 448.598C75.4869 449.382 74.9969 449.76 73.8909 449.76C72.7149 449.76 72.2529 449.214 72.1689 448.346H71.0349C71.1049 449.844 72.1549 450.726 73.9049 450.726ZM80.6315 450.726C82.4095 450.726 83.3195 449.83 83.3195 448.5C83.3195 446.946 82.2555 446.61 80.7435 446.33C79.3995 446.092 79.0355 445.826 79.0355 445.168C79.0355 444.538 79.5815 444.118 80.4215 444.118C81.3455 444.118 81.7935 444.468 81.9615 445.266H83.0815C82.8855 443.684 81.7515 443.152 80.4355 443.152C79.2875 443.152 77.9575 443.852 77.9575 445.21C77.9575 446.484 78.6015 447.016 80.5055 447.366C81.6395 447.576 82.2135 447.828 82.2135 448.598C82.2135 449.382 81.7235 449.76 80.6175 449.76C79.4415 449.76 78.9795 449.214 78.8955 448.346H77.7615C77.8315 449.844 78.8815 450.726 80.6315 450.726Z" fill="white" fill-opacity="0.7"/>
<rect x="255.5" y="384.214" width="79" height="30.8857" rx="3.5" stroke="#EA5E4B"/>
<path d="M284.9 403.577C286.796 403.577 288.056 402.413 288.056 400.925C288.056 399.209 287.012 398.633 284.996 398.357C283.508 398.141 283.22 397.793 283.22 397.097C283.22 396.437 283.724 395.969 284.696 395.969C285.68 395.969 286.196 396.353 286.352 397.253H287.816C287.648 395.609 286.544 394.769 284.696 394.769C282.908 394.769 281.708 395.825 281.708 397.229C281.708 398.837 282.68 399.461 284.732 399.737C286.124 399.965 286.52 400.265 286.52 401.057C286.52 401.849 285.848 402.377 284.9 402.377C283.448 402.377 283.1 401.657 282.992 400.793H281.456C281.576 402.413 282.56 403.577 284.9 403.577ZM289.601 403.457H295.169V402.197H291.197V399.689H294.221V398.489H291.197V396.137H294.965V394.877H289.601V403.457ZM296.609 403.457H301.865V402.185H298.205V394.877H296.609V403.457ZM303.218 403.457H308.474V402.185H304.814V394.877H303.218V403.457Z" fill="#EA5E4B"/>
<path d="M280.3 438.899C280.3 438.545 280.013 438.257 279.658 438.257H272.642C272.288 438.257 272 438.545 272 438.899C272 439.254 272.288 439.542 272.642 439.542H274.927C276.241 439.542 275.767 440.826 274.453 440.826H272.642C272.288 440.826 272 441.114 272 441.469C272 441.824 272.288 442.111 272.642 442.111H274.453C275.767 442.111 276.241 443.396 274.927 443.396H272.863C272.386 443.396 272 443.782 272 444.259C272 444.525 272.123 444.776 272.333 444.94L276.392 448.103C276.651 448.305 277.014 448.305 277.273 448.103C277.642 447.816 277.642 447.259 277.273 446.972L274.801 445.046C274.648 444.927 274.733 444.681 274.927 444.681C276.664 444.681 278.153 443.84 278.759 442.653C278.915 442.348 279.206 442.111 279.548 442.111H279.658C280.013 442.111 280.3 441.824 280.3 441.469C280.3 441.114 280.013 440.826 279.658 440.826H279.337C279.119 440.826 278.934 440.684 278.851 440.482C278.688 440.091 278.93 439.542 279.354 439.542H279.681C280.023 439.542 280.3 439.265 280.3 438.923V438.899Z" fill="white" fill-opacity="0.7"/>
<path d="M289.859 449.371H291.049V447.271H292.435V446.277H291.049V439.361H289.425L284.847 446.879V447.271H289.859V449.371ZM286.387 446.277L289.859 440.285V446.277H286.387ZM297.689 448.489C296.023 448.489 294.959 447.173 294.959 444.639V444.079C294.959 441.615 295.967 440.215 297.661 440.215C299.355 440.215 300.335 441.727 300.335 444.051V444.611C300.335 447.145 299.439 448.489 297.689 448.489ZM297.689 449.497C300.153 449.497 301.567 447.537 301.567 444.625V444.065C301.567 441.209 300.125 439.235 297.661 439.235C295.211 439.235 293.713 441.139 293.713 444.093V444.653C293.713 447.565 295.295 449.497 297.689 449.497ZM307.218 448.489C305.552 448.489 304.488 447.173 304.488 444.639V444.079C304.488 441.615 305.496 440.215 307.19 440.215C308.884 440.215 309.864 441.727 309.864 444.051V444.611C309.864 447.145 308.968 448.489 307.218 448.489ZM307.218 449.497C309.682 449.497 311.096 447.537 311.096 444.625V444.065C311.096 441.209 309.654 439.235 307.19 439.235C304.74 439.235 303.242 441.139 303.242 444.093V444.653C303.242 447.565 304.824 449.497 307.218 449.497Z" fill="white" fill-opacity="0.7"/>
<rect x="155.5" y="384.214" width="79" height="30.8857" rx="3.5" stroke="#EA5E4B"/>
<path d="M182.9 404.463C184.796 404.463 186.056 403.299 186.056 401.811C186.056 400.095 185.012 399.519 182.996 399.243C181.508 399.027 181.22 398.679 181.22 397.983C181.22 397.323 181.724 396.855 182.696 396.855C183.68 396.855 184.196 397.239 184.352 398.139H185.816C185.648 396.495 184.544 395.655 182.696 395.655C180.908 395.655 179.708 396.711 179.708 398.115C179.708 399.723 180.68 400.347 182.732 400.623C184.124 400.851 184.52 401.151 184.52 401.943C184.52 402.735 183.848 403.263 182.9 403.263C181.448 403.263 181.1 402.543 180.992 401.679H179.456C179.576 403.299 180.56 404.463 182.9 404.463ZM187.601 404.343H193.169V403.083H189.197V400.575H192.221V399.375H189.197V397.023H192.965V395.763H187.601V404.343ZM194.609 404.343H199.865V403.071H196.205V395.763H194.609V404.343ZM201.218 404.343H206.474V403.071H202.814V395.763H201.218V404.343Z" fill="#EA5E4B"/>
<path d="M178.3 438.899C178.3 438.545 178.013 438.257 177.658 438.257H170.642C170.288 438.257 170 438.545 170 438.899C170 439.254 170.288 439.542 170.642 439.542H172.927C174.241 439.542 173.767 440.826 172.453 440.826H170.642C170.288 440.826 170 441.114 170 441.469C170 441.824 170.288 442.111 170.642 442.111H172.453C173.767 442.111 174.241 443.396 172.927 443.396H170.863C170.386 443.396 170 443.782 170 444.259C170 444.525 170.123 444.776 170.333 444.94L174.392 448.103C174.651 448.305 175.014 448.305 175.273 448.103C175.642 447.816 175.642 447.259 175.273 446.972L172.801 445.046C172.648 444.927 172.733 444.681 172.927 444.681C174.664 444.681 176.153 443.84 176.759 442.653C176.915 442.348 177.206 442.111 177.548 442.111H177.658C178.013 442.111 178.3 441.824 178.3 441.469C178.3 441.114 178.013 440.826 177.658 440.826H177.337C177.119 440.826 176.934 440.684 176.851 440.482C176.688 440.091 176.93 439.542 177.354 439.542H177.681C178.023 439.542 178.3 439.265 178.3 438.923V438.899Z" fill="white" fill-opacity="0.7"/>
<path d="M187.859 449.371H189.049V447.271H190.435V446.277H189.049V439.361H187.425L182.847 446.879V447.271H187.859V449.371ZM184.387 446.277L187.859 440.285V446.277H184.387ZM195.689 448.489C194.023 448.489 192.959 447.173 192.959 444.639V444.079C192.959 441.615 193.967 440.215 195.661 440.215C197.355 440.215 198.335 441.727 198.335 444.051V444.611C198.335 447.145 197.439 448.489 195.689 448.489ZM195.689 449.497C198.153 449.497 199.567 447.537 199.567 444.625V444.065C199.567 441.209 198.125 439.235 195.661 439.235C193.211 439.235 191.713 441.139 191.713 444.093V444.653C191.713 447.565 193.295 449.497 195.689 449.497ZM205.218 448.489C203.552 448.489 202.488 447.173 202.488 444.639V444.079C202.488 441.615 203.496 440.215 205.19 440.215C206.884 440.215 207.864 441.727 207.864 444.051V444.611C207.864 447.145 206.968 448.489 205.218 448.489ZM205.218 449.497C207.682 449.497 209.096 447.537 209.096 444.625V444.065C209.096 441.209 207.654 439.235 205.19 439.235C202.74 439.235 201.242 441.139 201.242 444.093V444.653C201.242 447.565 202.824 449.497 205.218 449.497Z" fill="white" fill-opacity="0.7"/>
</svg>
