<svg width="90" height="90" viewBox="0 0 90 90" fill="none" xmlns="http://www.w3.org/2000/svg">
<path d="M45 0C36.2762 0 29.1797 7.27225 29.1797 15.9961C29.1797 24.7199 36.2762 31.8164 45 31.8164C53.7238 31.8164 60.8203 24.7199 60.8203 15.9961C60.8203 7.27225 53.7238 0 45 0Z" fill="black"/>
<path d="M50.2736 31.8164H45.0002H39.7268C36.0076 31.8164 32.4137 32.7778 29.1465 34.4132C34.6957 35.9105 39.9206 38.067 45.0002 40.9825C50.0799 38.067 55.3047 35.9105 60.8539 34.4132C57.5867 32.7778 53.9928 31.8164 50.2736 31.8164Z" fill="black"/>
<path d="M84.7266 47.6367C81.814 47.6367 79.4531 49.9976 79.4531 52.9102V63.457C79.4531 66.3692 81.814 68.7305 84.7266 68.7305C87.6391 68.7305 90 66.3692 90 63.457V52.9102C90 49.9976 87.6391 47.6367 84.7266 47.6367Z" fill="black"/>
<path d="M5.27344 47.6367C2.36092 47.6367 0 49.9976 0 52.9102V63.457C0 66.3692 2.36092 68.7305 5.27344 68.7305C8.18596 68.7305 10.5469 66.3692 10.5469 63.457V52.9102C10.5469 49.9976 8.18596 47.6367 5.27344 47.6367Z" fill="black"/>
<path d="M7.91016 37.0898C6.45275 37.0898 5.27344 38.2692 5.27344 39.7266V42.3633C11.0902 42.3633 15.8203 47.0934 15.8203 52.9102V63.457C15.8203 69.2738 11.0902 74.0039 5.27344 74.0039V76.6406C5.27344 78.098 6.45275 79.2773 7.91016 79.2773C21.4279 79.2773 32.2365 83.5464 42.3633 90V45.6318C32.1908 39.7993 21.2525 37.0898 7.91016 37.0898Z" fill="#18B13F"/>
<path d="M84.7266 42.3633V39.7266C84.7266 38.2692 83.5472 37.0898 82.0898 37.0898C68.7475 37.0898 57.8092 39.7993 47.6367 45.6318V90C57.7635 83.5464 68.5721 79.2773 82.0898 79.2773C83.5472 79.2773 84.7266 78.098 84.7266 76.6406V74.0039C78.9098 74.0039 74.1797 69.2738 74.1797 63.457V52.9102C74.1797 47.0934 78.9098 42.3633 84.7266 42.3633Z" fill="#18B13F"/>
</svg>
