<svg width="17" height="16" viewBox="0 0 17 16" fill="none" xmlns="http://www.w3.org/2000/svg">
<path d="M8.25837 0.610107C10.3716 0.610107 10.6353 0.617488 11.4644 0.654388C12.2928 0.691289 12.8567 0.814538 13.3529 0.997566C13.8662 1.18502 14.2987 1.4389 14.7311 1.8485C15.1266 2.21743 15.4327 2.6637 15.6279 3.15626C15.82 3.62638 15.9507 4.16218 15.9896 4.94816C16.0262 5.73489 16.0363 5.98507 16.0363 7.99026C16.0363 9.99545 16.0285 10.2456 15.9896 11.0324C15.9507 11.8183 15.82 12.3534 15.6279 12.8243C15.4332 13.3171 15.1271 13.7635 14.7311 14.132C14.3422 14.5072 13.8719 14.7975 13.3529 14.983C12.8574 15.1652 12.2928 15.2892 11.4644 15.3261C10.6353 15.3608 10.3716 15.3704 8.25837 15.3704C6.14511 15.3704 5.88144 15.363 5.05232 15.3261C4.22397 15.2892 3.66007 15.1652 3.16384 14.983C2.64453 14.7981 2.17413 14.5076 1.7856 14.132C1.39002 13.7632 1.08398 13.3169 0.888809 12.8243C0.695917 12.3541 0.566026 11.8183 0.527136 11.0324C0.49058 10.2456 0.480469 9.99545 0.480469 7.99026C0.480469 5.98507 0.488247 5.73489 0.527136 4.94816C0.566026 4.16144 0.695917 3.62711 0.888809 3.15626C1.08344 2.6634 1.38955 2.217 1.7856 1.8485C2.17424 1.47302 2.64461 1.18261 3.16384 0.997566C3.66007 0.814538 4.2232 0.691289 5.05232 0.654388C5.88144 0.619702 6.14511 0.610107 8.25837 0.610107ZM8.25837 4.30019C7.22696 4.30019 6.23779 4.68896 5.50847 5.38098C4.77915 6.07301 4.36942 7.01159 4.36942 7.99026C4.36942 8.96893 4.77915 9.90752 5.50847 10.5995C6.23779 11.2916 7.22696 11.6803 8.25837 11.6803C9.28978 11.6803 10.279 11.2916 11.0083 10.5995C11.7376 9.90752 12.1473 8.96893 12.1473 7.99026C12.1473 7.01159 11.7376 6.07301 11.0083 5.38098C10.279 4.68896 9.28978 4.30019 8.25837 4.30019ZM13.314 4.11568C13.314 3.87101 13.2116 3.63637 13.0292 3.46336C12.8469 3.29036 12.5996 3.19316 12.3418 3.19316C12.0839 3.19316 11.8366 3.29036 11.6543 3.46336C11.472 3.63637 11.3695 3.87101 11.3695 4.11568C11.3695 4.36035 11.472 4.595 11.6543 4.768C11.8366 4.94101 12.0839 5.0382 12.3418 5.0382C12.5996 5.0382 12.8469 4.94101 13.0292 4.768C13.2116 4.595 13.314 4.36035 13.314 4.11568ZM8.25837 5.77622C8.87722 5.77622 9.47072 6.00948 9.90831 6.4247C10.3459 6.83991 10.5917 7.40306 10.5917 7.99026C10.5917 8.57746 10.3459 9.14062 9.90831 9.55583C9.47072 9.97104 8.87722 10.2043 8.25837 10.2043C7.63952 10.2043 7.04602 9.97104 6.60843 9.55583C6.17084 9.14062 5.925 8.57746 5.925 7.99026C5.925 7.40306 6.17084 6.83991 6.60843 6.4247C7.04602 6.00948 7.63952 5.77622 8.25837 5.77622Z" fill="white" fill-opacity="0.8"/>
</svg>
