<svg width="22" height="22" viewBox="0 0 22 22" fill="none" xmlns="http://www.w3.org/2000/svg">
<circle cx="11" cy="11" r="11" fill="#EA5E4B"/>
<path d="M7.1485 9.23087C7.24739 9.07691 7.36462 9 7.50006 9H14.5C14.6355 9 14.7526 9.07691 14.8516 9.23087C14.9506 9.38499 15 9.56721 15 9.77786C15 9.98847 14.9506 10.1707 14.8516 10.3247L11.3516 15.769C11.2525 15.9229 11.1354 16 11 16C10.8646 16 10.7474 15.9229 10.6485 15.769L7.1485 10.3246C7.04964 10.1707 7 9.98847 7 9.77782C7 9.56721 7.04964 9.38499 7.1485 9.23087Z" fill="white"/>
</svg>
