<svg width="22" height="22" viewBox="0 0 22 22" fill="none" xmlns="http://www.w3.org/2000/svg">
<circle cx="11" cy="11" r="11" fill="#18B13F"/>
<path d="M7.1485 13.7691C7.24739 13.9231 7.36462 14 7.50006 14L14.5 14C14.6355 14 14.7526 13.9231 14.8516 13.7691C14.9506 13.615 15 13.4328 15 13.2221C15 13.0115 14.9506 12.8293 14.8516 12.6753L11.3516 7.23104C11.2525 7.07708 11.1354 7 11 7C10.8646 7 10.7474 7.07708 10.6485 7.23104L7.1485 12.6754C7.04964 12.8293 7 13.0115 7 13.2222C7 13.4328 7.04964 13.615 7.1485 13.7691Z" fill="white"/>
</svg>
