<svg width="15" height="14" viewBox="0 0 15 14" fill="none" xmlns="http://www.w3.org/2000/svg">
<path d="M3.42061 13.9104V4.78155H0.363936V13.9104H3.42061ZM1.89267 3.53441C2.95859 3.53441 3.62207 2.83342 3.62207 1.95742C3.60221 1.06166 2.95863 0.380127 1.9129 0.380127C0.86733 0.380127 0.183594 1.06167 0.183594 1.95742C0.183594 2.83346 0.846912 3.53441 1.87271 3.53441H1.89257H1.89267ZM5.11247 13.9104H8.16915V8.81241C8.16915 8.53957 8.18901 8.26702 8.26973 8.07198C8.4907 7.52686 8.99365 6.96227 9.83803 6.96227C10.9441 6.96227 11.3866 7.79941 11.3866 9.02661V13.9103H14.4431V8.67594C14.4431 5.87192 12.9351 4.56723 10.924 4.56723C9.27503 4.56723 8.55103 5.48218 8.14881 6.10534H8.16922V4.78136H5.11254C5.15266 5.63796 5.11254 13.9102 5.11254 13.9102L5.11247 13.9104Z" fill="white" fill-opacity="0.8"/>
</svg>
