<svg width="132" height="112" viewBox="0 0 132 112" fill="none" xmlns="http://www.w3.org/2000/svg">
<path d="M46.8354 66.1142C48.8814 66.1142 50.54 64.4923 50.54 62.4917C50.54 60.491 48.8814 58.8691 46.8354 58.8691C44.7895 58.8691 43.1309 60.491 43.1309 62.4917C43.1309 64.4923 44.7895 66.1142 46.8354 66.1142Z" fill="#DFDFDF"/>
<path d="M36.9585 58.8696C39.0045 58.8696 40.6631 57.2477 40.6631 55.247C40.6631 53.2464 39.0045 51.6245 36.9585 51.6245C34.9125 51.6245 33.2539 53.2464 33.2539 55.247C33.2539 57.2477 34.9125 58.8696 36.9585 58.8696Z" fill="#DFDFDF"/>
<path d="M27.0776 56.455C29.1236 56.455 30.7822 54.8331 30.7822 52.8325C30.7822 50.8318 29.1236 49.21 27.0776 49.21C25.0316 49.21 23.373 50.8318 23.373 52.8325C23.373 54.8331 25.0316 56.455 27.0776 56.455Z" fill="#DFDFDF"/>
<path d="M17.1987 61.2841C19.2447 61.2841 20.9033 59.6622 20.9033 57.6616C20.9033 55.6609 19.2447 54.0391 17.1987 54.0391C15.1527 54.0391 13.4941 55.6609 13.4941 57.6616C13.4941 59.6622 15.1527 61.2841 17.1987 61.2841Z" fill="#DFDFDF"/>
<path d="M43.1322 62.4921V78.1897C43.1322 78.8562 42.579 79.3972 41.8974 79.3972C41.2157 79.3972 40.6625 78.8562 40.6625 78.1897V55.247H33.2534V75.7747C33.2534 76.4412 32.7002 76.9822 32.0185 76.9822C31.3369 76.9822 30.7837 76.4412 30.7837 75.7747V52.832H23.3745V75.7747C23.3745 76.4412 22.8213 76.9822 22.1396 76.9822C21.458 76.9822 20.9048 76.4412 20.9048 75.7747V57.6621H13.4956L13.4956 87.8497L8.49445 81.1577C7.01261 78.9238 4.12058 78.1752 2.00156 79.4552C-0.110052 80.7641 -0.633632 83.6186 0.828441 85.8453C0.828441 85.8453 8.89454 97.7827 12.3324 102.893C15.7702 108.003 21.3394 112 31.7543 112C48.9978 112 50.5414 98.9781 50.5414 95.0948C50.5414 91.2114 50.5414 62.4921 50.5414 62.4921H43.1322Z" fill="black"/>
<path d="M129.831 20.6528C129.657 21.0841 129.397 21.4775 129.067 21.8103C128.737 22.1431 128.342 22.4089 127.906 22.5922L101.508 33.7289L106.166 44.2418C106.355 44.6675 106.456 45.1253 106.463 45.5891C106.471 46.0528 106.385 46.5133 106.21 46.9443C106.035 47.3754 105.775 47.7685 105.445 48.1012C105.115 48.434 104.72 48.6999 104.285 48.8837L74.7601 61.3393L82.3315 64.272C83.2231 64.6175 83.938 65.2947 84.319 66.1545C84.7 67.0144 84.7158 67.9865 84.363 68.857C84.0102 69.7275 83.3177 70.4251 82.4378 70.7963C81.5578 71.1675 80.5626 71.182 79.671 70.8364L63.9818 64.7593C63.0902 64.4137 62.3752 63.7366 61.9942 62.8767C61.6133 62.0168 61.5974 61.0447 61.9502 60.1742L68.158 44.8572C68.5108 43.9867 69.2033 43.2891 70.0832 42.9179C70.9632 42.5467 71.9584 42.5322 72.85 42.8778C73.7416 43.2233 74.4565 43.9004 74.8375 44.7603C75.2185 45.6202 75.2343 46.5923 74.8815 47.4628L71.8852 54.8558L98.0938 43.7991L93.4356 33.2862C93.2469 32.8604 93.1459 32.4026 93.1384 31.9389C93.1308 31.4752 93.2168 31.0147 93.3915 30.5836C93.5662 30.1526 93.8262 29.7595 94.1565 29.4267C94.4869 29.094 94.8811 28.8281 95.3169 28.6443L125.033 16.1078C125.689 15.831 126.415 15.7505 127.118 15.8766C127.822 16.0026 128.471 16.3296 128.985 16.8161C129.499 17.3026 129.853 17.9267 130.004 18.6097C130.154 19.2926 130.094 20.0036 129.831 20.6528Z" fill="#F12A2A"/>
</svg>
