<svg width="18" height="14" viewBox="0 0 18 14" fill="none" xmlns="http://www.w3.org/2000/svg">
<path d="M17.3667 2.3382C16.7647 2.59132 16.118 2.76235 15.4381 2.83966C16.1396 2.44136 16.6644 1.81449 16.9146 1.07602C16.2556 1.44748 15.5342 1.70896 14.782 1.84906C14.2761 1.33657 13.6061 0.996887 12.8759 0.882742C12.1458 0.768596 11.3963 0.886379 10.7439 1.2178C10.0915 1.54923 9.57273 2.07575 9.26802 2.71563C8.96332 3.3555 8.88978 4.07293 9.05883 4.75653C7.72334 4.69291 6.41688 4.36354 5.22423 3.78982C4.03158 3.21609 2.9794 2.41083 2.13597 1.42628C1.84757 1.89832 1.68175 2.44561 1.68175 3.02847C1.68143 3.55318 1.8176 4.06985 2.0782 4.53264C2.33879 4.99544 2.71575 5.39004 3.17562 5.68145C2.64229 5.66534 2.12073 5.52861 1.65435 5.28261V5.32366C1.6543 6.05958 1.92258 6.77286 2.41367 7.34246C2.90477 7.91207 3.58843 8.30291 4.34866 8.44867C3.85391 8.57572 3.3352 8.59443 2.83171 8.5034C3.0462 9.13662 3.46401 9.69035 4.02664 10.0871C4.58928 10.4838 5.26857 10.7036 5.96942 10.7158C4.77968 11.602 3.31036 12.0827 1.79783 12.0806C1.52989 12.0807 1.26219 12.0658 0.996094 12.0361C2.53141 12.9728 4.31862 13.4699 6.1439 13.468C12.3227 13.468 15.7005 8.61217 15.7005 4.40079C15.7005 4.26397 15.6969 4.12578 15.6904 3.98896C16.3474 3.53811 16.9146 2.97983 17.3653 2.34026L17.3667 2.3382Z" fill="white" fill-opacity="0.8"/>
</svg>
