<svg width="460" height="476" viewBox="0 0 460 476" fill="none" xmlns="http://www.w3.org/2000/svg">
<path d="M0 0H460V156H0V0Z" fill="#14141C"/>
<rect x="398" y="11" width="40" height="22.1429" rx="4" fill="white" fill-opacity="0.14"/>
<path d="M408.14 27.2002H409.184V18.6202H408.14V27.2002ZM411.408 27.2002H412.404V19.8442L416.736 27.2002H417.936V18.6202H416.94V25.7122L412.764 18.6202H411.408V27.2002ZM421.136 26.3482V19.4602H422.3C424.664 19.4602 425.624 20.8522 425.624 22.8322V22.9282C425.624 25.0282 424.52 26.3482 422.312 26.3482H421.136ZM420.092 27.2002H422.336C425.336 27.2002 426.704 25.3162 426.704 22.9402V22.8322C426.704 20.4442 425.312 18.6202 422.36 18.6202H420.092V27.2002Z" fill="white" fill-opacity="0.7"/>
<path d="M23.476 37H28.426C31.252 37 32.836 35.794 32.836 33.4V33.328C32.836 31.618 32.008 30.664 30.262 30.286C31.72 29.836 32.296 28.828 32.296 27.55V27.478C32.296 25.138 30.73 24.13 28.084 24.13H23.476V37ZM25.816 35.29V31.168H27.976C29.74 31.168 30.478 31.834 30.478 33.166V33.238C30.478 34.57 29.74 35.29 28.138 35.29H25.816ZM25.816 29.548V25.84H27.76C29.29 25.84 29.992 26.362 29.992 27.586V27.658C29.992 28.972 29.38 29.548 27.796 29.548H25.816ZM37.3636 37.18C38.8036 37.18 39.6316 36.658 40.2436 35.848V37H42.3856V30.826C42.3856 28.252 40.7296 27.388 38.6236 27.388C36.5176 27.388 34.7716 28.306 34.5916 30.502H36.6976C36.8056 29.566 37.3636 29.026 38.4976 29.026C39.7756 29.026 40.2076 29.656 40.2076 30.916V31.402H39.0376C36.3376 31.402 34.2136 32.194 34.2136 34.39C34.2136 36.352 35.6356 37.18 37.3636 37.18ZM37.8856 35.614C36.8056 35.614 36.3736 35.092 36.3736 34.3C36.3736 33.148 37.4356 32.77 39.0916 32.77H40.2076V33.706C40.2076 34.912 39.2176 35.614 37.8856 35.614ZM44.9359 37H47.1139V23.23H44.9359V37ZM52.2347 37.18C53.6747 37.18 54.5027 36.658 55.1147 35.848V37H57.2567V30.826C57.2567 28.252 55.6007 27.388 53.4947 27.388C51.3887 27.388 49.6427 28.306 49.4627 30.502H51.5687C51.6767 29.566 52.2347 29.026 53.3687 29.026C54.6467 29.026 55.0787 29.656 55.0787 30.916V31.402H53.9087C51.2087 31.402 49.0847 32.194 49.0847 34.39C49.0847 36.352 50.5067 37.18 52.2347 37.18ZM52.7567 35.614C51.6767 35.614 51.2447 35.092 51.2447 34.3C51.2447 33.148 52.3067 32.77 53.9627 32.77H55.0787V33.706C55.0787 34.912 54.0887 35.614 52.7567 35.614ZM58.511 40.384C61.121 40.348 61.985 39.232 61.985 37.324V27.586H59.807V37.378C59.807 38.17 59.465 38.638 58.511 38.71V40.384ZM60.869 26.038C61.589 26.038 62.165 25.498 62.165 24.796C62.165 24.076 61.589 23.536 60.869 23.536C60.149 23.536 59.573 24.076 59.573 24.796C59.573 25.498 60.149 26.038 60.869 26.038ZM64.6938 37H66.8718V27.586H64.6938V37ZM65.7558 26.038C66.4758 26.038 67.0518 25.498 67.0518 24.796C67.0518 24.076 66.4758 23.536 65.7558 23.536C65.0358 23.536 64.4598 24.076 64.4598 24.796C64.4598 25.498 65.0358 26.038 65.7558 26.038ZM73.0055 37H75.2555L76.2635 33.814H81.1775L82.2035 37H84.6875L80.4395 24.13H77.3075L73.0055 37ZM78.7295 26.092L80.6195 32.068H76.8215L78.7295 26.092ZM86.4718 37H88.6498V31.366C88.6498 29.926 89.6398 29.206 90.7198 29.206C91.7818 29.206 92.3938 29.8 92.3938 31.186V37H94.5718V31.366C94.5718 29.926 95.5618 29.206 96.6418 29.206C97.7218 29.206 98.3158 29.8 98.3158 31.186V37H100.494V31.042C100.494 28.45 99.0898 27.388 97.3618 27.388C96.1918 27.388 94.8958 27.91 94.1758 29.08C93.7078 27.91 92.7358 27.388 91.5118 27.388C90.1258 27.388 89.0998 28.144 88.6498 29.026V27.586H86.4718V37ZM103.049 37H105.227V27.586H103.049V37ZM104.111 26.038C104.831 26.038 105.407 25.498 105.407 24.796C105.407 24.076 104.831 23.536 104.111 23.536C103.391 23.536 102.815 24.076 102.815 24.796C102.815 25.498 103.391 26.038 104.111 26.038ZM107.882 37H110.06V31.456C110.06 29.962 111.05 29.206 112.274 29.206C113.57 29.206 114.146 29.854 114.146 31.276V37H116.324V31.078C116.324 28.486 114.992 27.388 113.102 27.388C111.554 27.388 110.51 28.162 110.06 29.08V27.586H107.882V37ZM122.973 37.18C125.385 37.18 126.987 36.1 127.293 34.12H125.187C125.025 35.038 124.341 35.56 123.027 35.56C121.407 35.56 120.507 34.552 120.435 32.77H127.329V32.14C127.329 28.774 125.223 27.388 122.883 27.388C120.201 27.388 118.203 29.332 118.203 32.248V32.392C118.203 35.362 120.201 37.18 122.973 37.18ZM120.471 31.312C120.687 29.854 121.569 28.972 122.883 28.972C124.233 28.972 125.061 29.692 125.169 31.312H120.471ZM132.584 37.18C134.996 37.18 136.346 36.082 136.346 34.174C136.346 32.176 135.032 31.636 132.818 31.294C131.324 31.042 130.874 30.772 130.874 30.088C130.874 29.422 131.432 28.972 132.368 28.972C133.376 28.972 133.862 29.368 134.042 30.232H136.058C135.824 28.108 134.294 27.388 132.368 27.388C130.604 27.388 128.84 28.324 128.84 30.214C128.84 31.978 129.758 32.68 132.242 33.076C133.628 33.31 134.258 33.598 134.258 34.372C134.258 35.164 133.736 35.578 132.566 35.578C131.288 35.578 130.802 35.02 130.694 34.066H128.642C128.732 36.064 130.154 37.18 132.584 37.18Z" fill="white"/>
<path d="M36.562 87.5713H38.438V77.5613H36.772L34.448 79.2133V80.8513L36.562 79.4093V87.5713ZM40.0752 87.5713H47.3132V86.1293H43.0572L45.2832 83.9593C46.4732 82.8113 47.2432 81.6773 47.2432 80.3753C47.2432 78.6113 46.0112 77.4213 43.9392 77.4213C41.8252 77.4213 40.5092 78.6813 40.3832 80.8653H42.0912C42.2592 79.4513 42.8892 78.8773 43.8832 78.8773C44.8492 78.8773 45.3812 79.4653 45.3812 80.4033C45.3812 81.3553 44.8072 82.2373 43.8552 83.2453L40.0752 87.2353V87.5713ZM52.215 87.7113C54.511 87.7113 55.967 86.5633 55.967 84.7153C55.967 83.3853 55.197 82.5593 54.035 82.2933C55.001 81.9293 55.659 81.2433 55.659 80.1093C55.659 78.6253 54.441 77.4213 52.355 77.4213C50.213 77.4213 48.911 78.7513 48.813 80.4873H50.465C50.577 79.4793 51.263 78.8353 52.327 78.8353C53.363 78.8353 53.881 79.4373 53.881 80.2493C53.881 81.1873 53.363 81.7193 52.215 81.7193H51.501V83.0493H52.271C53.489 83.0493 54.077 83.5953 54.077 84.6873C54.077 85.6813 53.475 86.3113 52.173 86.3113C50.829 86.3113 50.241 85.5273 50.143 84.4773H48.449C48.533 86.3953 49.835 87.7113 52.215 87.7113ZM56.8916 87.5713H64.1296V86.1293H59.8736L62.0996 83.9593C63.2896 82.8113 64.0596 81.6773 64.0596 80.3753C64.0596 78.6113 62.8276 77.4213 60.7556 77.4213C58.6416 77.4213 57.3256 78.6813 57.1996 80.8653H58.9076C59.0756 79.4513 59.7056 78.8773 60.6996 78.8773C61.6656 78.8773 62.1976 79.4653 62.1976 80.4033C62.1976 81.3553 61.6236 82.2373 60.6716 83.2453L56.8916 87.2353V87.5713Z" fill="white"/>
<path d="M30 76.2893C30 75.8927 29.6786 75.5713 29.282 75.5713H22.718C22.3214 75.5713 22 75.8927 22 76.2892C22 76.6858 22.3214 77.0072 22.718 77.0072H24.8212C26.1811 77.0072 25.5982 78.4431 24.2383 78.4431H22.718C22.3214 78.4431 22 78.7645 22 79.161C22 79.5576 22.3214 79.879 22.718 79.879H24.2383C25.5982 79.879 26.1811 81.3149 24.8212 81.3149H22.9942C22.4451 81.3149 22 81.76 22 82.3091C22 82.5903 22.1191 82.8584 22.3277 83.0469L26.153 86.5027C26.4398 86.7619 26.8763 86.7619 27.1631 86.5027C27.4942 86.2036 27.4942 85.6838 27.1631 85.3846L24.6733 83.1353C24.5233 82.9998 24.6192 82.7508 24.8212 82.7508C26.5211 82.7508 27.9751 81.7814 28.5415 80.4224C28.6699 80.1142 28.9519 79.879 29.2858 79.879C29.6803 79.879 30 79.5555 30 79.1611C30 78.7666 29.6803 78.4431 29.2858 78.4431H29.1563C28.8982 78.4431 28.6788 78.2615 28.5887 78.0195C28.4254 77.5809 28.7083 77.0072 29.1764 77.0072H29.3612C29.714 77.0072 30 76.7212 30 76.3684V76.2893Z" fill="white"/>
<rect x="358.5" y="64.2139" width="79" height="30.8857" rx="3.5" stroke="#18B13F"/>
<path d="M385.984 83.457H389.284C391.168 83.457 392.224 82.653 392.224 81.057V81.009C392.224 79.869 391.672 79.233 390.508 78.981C391.48 78.681 391.864 78.009 391.864 77.157V77.109C391.864 75.549 390.82 74.877 389.056 74.877H385.984V83.457ZM387.544 82.317V79.569H388.984C390.16 79.569 390.652 80.013 390.652 80.901V80.949C390.652 81.837 390.16 82.317 389.092 82.317H387.544ZM387.544 78.489V76.017H388.84C389.86 76.017 390.328 76.365 390.328 77.181V77.229C390.328 78.105 389.92 78.489 388.864 78.489H387.544ZM397.018 83.577C399.286 83.577 400.498 82.341 400.498 80.097V74.877H398.89V79.965C398.89 81.741 398.266 82.293 397.03 82.293C395.758 82.293 395.254 81.645 395.254 80.073V74.877H393.646V80.193C393.646 82.401 394.87 83.577 397.018 83.577ZM404.454 83.457H406.062V79.749L408.75 74.877H407.19L405.306 78.429L403.374 74.877H401.61L404.454 79.737V83.457Z" fill="#18B13F"/>
<path d="M385.3 118.899C385.3 118.545 385.013 118.257 384.658 118.257H377.642C377.288 118.257 377 118.545 377 118.899C377 119.254 377.288 119.542 377.642 119.542H379.927C381.241 119.542 380.767 120.826 379.453 120.826H377.642C377.288 120.826 377 121.114 377 121.469C377 121.824 377.288 122.111 377.642 122.111H379.453C380.767 122.111 381.241 123.396 379.927 123.396H377.863C377.386 123.396 377 123.782 377 124.259C377 124.525 377.123 124.776 377.333 124.94L381.392 128.103C381.651 128.305 382.014 128.305 382.273 128.103C382.642 127.816 382.642 127.259 382.273 126.972L379.801 125.046C379.648 124.927 379.733 124.681 379.927 124.681C381.664 124.681 383.153 123.84 383.759 122.653C383.915 122.348 384.206 122.111 384.548 122.111H384.658C385.013 122.111 385.3 121.824 385.3 121.469C385.3 121.114 385.013 120.826 384.658 120.826H384.337C384.119 120.826 383.934 120.684 383.851 120.482C383.688 120.091 383.93 119.542 384.354 119.542H384.681C385.023 119.542 385.3 119.265 385.3 118.923V118.899Z" fill="white" fill-opacity="0.7"/>
<path d="M394.859 129.371H396.049V127.271H397.435V126.277H396.049V119.361H394.425L389.847 126.879V127.271H394.859V129.371ZM391.387 126.277L394.859 120.285V126.277H391.387ZM402.689 128.489C401.023 128.489 399.959 127.173 399.959 124.639V124.079C399.959 121.615 400.967 120.215 402.661 120.215C404.355 120.215 405.335 121.727 405.335 124.051V124.611C405.335 127.145 404.439 128.489 402.689 128.489ZM402.689 129.497C405.153 129.497 406.567 127.537 406.567 124.625V124.065C406.567 121.209 405.125 119.235 402.661 119.235C400.211 119.235 398.713 121.139 398.713 124.093V124.653C398.713 127.565 400.295 129.497 402.689 129.497ZM412.218 128.489C410.552 128.489 409.488 127.173 409.488 124.639V124.079C409.488 121.615 410.496 120.215 412.19 120.215C413.884 120.215 414.864 121.727 414.864 124.051V124.611C414.864 127.145 413.968 128.489 412.218 128.489ZM412.218 129.497C414.682 129.497 416.096 127.537 416.096 124.625V124.065C416.096 121.209 414.654 119.235 412.19 119.235C409.74 119.235 408.242 121.139 408.242 124.093V124.653C408.242 127.565 409.824 129.497 412.218 129.497Z" fill="white" fill-opacity="0.7"/>
<path d="M26.494 130.726C28.482 130.726 29.952 129.452 29.952 127.772C29.952 125.882 28.776 125.21 26.55 124.86C24.506 124.552 24.142 124.048 24.142 123.068C24.142 122.13 24.856 121.444 26.228 121.444C27.614 121.444 28.342 121.962 28.58 123.222H29.672C29.476 121.444 28.23 120.464 26.228 120.464C24.338 120.464 23.008 121.64 23.008 123.18C23.008 124.958 24.254 125.616 26.354 125.938C28.258 126.246 28.776 126.722 28.776 127.856C28.776 128.99 27.782 129.746 26.494 129.746C24.478 129.746 24.002 128.738 23.848 127.548H22.672C22.854 129.256 23.82 130.726 26.494 130.726ZM34.1793 130.698C34.6553 130.698 34.9353 130.628 35.1733 130.544V129.564C34.9213 129.662 34.6413 129.718 34.2773 129.718C33.6893 129.718 33.3673 129.368 33.3673 128.654V124.258H35.0753V123.278H33.3673V121.612H32.2053V123.278H31.1553V124.258H32.2053V128.766C32.2053 129.914 32.8493 130.698 34.1793 130.698ZM39.9819 129.76C38.4979 129.76 37.5879 128.668 37.5879 127.002V126.89C37.5879 125.21 38.5119 124.118 39.9819 124.118C41.4379 124.118 42.3759 125.21 42.3759 126.904V127.002C42.3759 128.654 41.4519 129.76 39.9819 129.76ZM39.9679 130.726C42.0539 130.726 43.5799 129.2 43.5799 126.988V126.876C43.5799 124.678 42.0539 123.152 39.9819 123.152C37.9099 123.152 36.3839 124.692 36.3839 126.89V127.002C36.3839 129.144 37.8819 130.726 39.9679 130.726ZM45.3791 133.148H46.5411V129.396C46.9611 130.124 47.8151 130.726 49.0191 130.726C51.0351 130.726 52.3511 129.186 52.3511 126.946V126.834C52.3511 124.552 50.9371 123.152 49.0191 123.152C47.9551 123.152 46.9611 123.796 46.5411 124.51V123.278H45.3791V133.148ZM48.9071 129.76C47.4791 129.76 46.4991 128.878 46.4991 127.002V126.89C46.4991 125.014 47.5351 124.118 48.8931 124.118C50.1251 124.118 51.1471 125.042 51.1471 126.89V127.002C51.1471 128.78 50.3631 129.76 48.9071 129.76ZM53.8205 127.296H56.8165V126.204H53.8205V127.296ZM58.9163 130.6H64.7123V129.606H60.1343V120.59H58.9163V130.6ZM69.2397 129.76C67.7557 129.76 66.8457 128.668 66.8457 127.002V126.89C66.8457 125.21 67.7697 124.118 69.2397 124.118C70.6957 124.118 71.6337 125.21 71.6337 126.904V127.002C71.6337 128.654 70.7097 129.76 69.2397 129.76ZM69.2257 130.726C71.3117 130.726 72.8377 129.2 72.8377 126.988V126.876C72.8377 124.678 71.3117 123.152 69.2397 123.152C67.1677 123.152 65.6417 124.692 65.6417 126.89V127.002C65.6417 129.144 67.1397 130.726 69.2257 130.726ZM76.9049 130.726C78.6829 130.726 79.5929 129.83 79.5929 128.5C79.5929 126.946 78.5289 126.61 77.0169 126.33C75.6729 126.092 75.3089 125.826 75.3089 125.168C75.3089 124.538 75.8549 124.118 76.6949 124.118C77.6189 124.118 78.0669 124.468 78.2349 125.266H79.3549C79.1589 123.684 78.0249 123.152 76.7089 123.152C75.5609 123.152 74.2309 123.852 74.2309 125.21C74.2309 126.484 74.8749 127.016 76.7789 127.366C77.9129 127.576 78.4869 127.828 78.4869 128.598C78.4869 129.382 77.9969 129.76 76.8909 129.76C75.7149 129.76 75.2529 129.214 75.1689 128.346H74.0349C74.1049 129.844 75.1549 130.726 76.9049 130.726ZM83.6315 130.726C85.4095 130.726 86.3195 129.83 86.3195 128.5C86.3195 126.946 85.2555 126.61 83.7435 126.33C82.3995 126.092 82.0355 125.826 82.0355 125.168C82.0355 124.538 82.5815 124.118 83.4215 124.118C84.3455 124.118 84.7935 124.468 84.9615 125.266H86.0815C85.8855 123.684 84.7515 123.152 83.4355 123.152C82.2875 123.152 80.9575 123.852 80.9575 125.21C80.9575 126.484 81.6015 127.016 83.5055 127.366C84.6395 127.576 85.2135 127.828 85.2135 128.598C85.2135 129.382 84.7235 129.76 83.6175 129.76C82.4415 129.76 81.9795 129.214 81.8955 128.346H80.7615C80.8315 129.844 81.8815 130.726 83.6315 130.726Z" fill="white" fill-opacity="0.7"/>
<rect x="258.5" y="64.2139" width="79" height="30.8857" rx="3.5" stroke="#18B13F"/>
<path d="M285.984 83.457H289.284C291.168 83.457 292.224 82.653 292.224 81.057V81.009C292.224 79.869 291.672 79.233 290.508 78.981C291.48 78.681 291.864 78.009 291.864 77.157V77.109C291.864 75.549 290.82 74.877 289.056 74.877H285.984V83.457ZM287.544 82.317V79.569H288.984C290.16 79.569 290.652 80.013 290.652 80.901V80.949C290.652 81.837 290.16 82.317 289.092 82.317H287.544ZM287.544 78.489V76.017H288.84C289.86 76.017 290.328 76.365 290.328 77.181V77.229C290.328 78.105 289.92 78.489 288.864 78.489H287.544ZM297.018 83.577C299.286 83.577 300.498 82.341 300.498 80.097V74.877H298.89V79.965C298.89 81.741 298.266 82.293 297.03 82.293C295.758 82.293 295.254 81.645 295.254 80.073V74.877H293.646V80.193C293.646 82.401 294.87 83.577 297.018 83.577ZM304.454 83.457H306.062V79.749L308.75 74.877H307.19L305.306 78.429L303.374 74.877H301.61L304.454 79.737V83.457Z" fill="#18B13F"/>
<path d="M283.3 118.899C283.3 118.545 283.013 118.257 282.658 118.257H275.642C275.288 118.257 275 118.545 275 118.899C275 119.254 275.288 119.542 275.642 119.542H277.927C279.241 119.542 278.767 120.826 277.453 120.826H275.642C275.288 120.826 275 121.114 275 121.469C275 121.824 275.288 122.111 275.642 122.111H277.453C278.767 122.111 279.241 123.396 277.927 123.396H275.863C275.386 123.396 275 123.782 275 124.259C275 124.525 275.123 124.776 275.333 124.94L279.392 128.103C279.651 128.305 280.014 128.305 280.273 128.103C280.642 127.816 280.642 127.259 280.273 126.972L277.801 125.046C277.648 124.927 277.733 124.681 277.927 124.681C279.664 124.681 281.153 123.84 281.759 122.653C281.915 122.348 282.206 122.111 282.548 122.111H282.658C283.013 122.111 283.3 121.824 283.3 121.469C283.3 121.114 283.013 120.826 282.658 120.826H282.337C282.119 120.826 281.934 120.684 281.851 120.482C281.688 120.091 281.93 119.542 282.354 119.542H282.681C283.023 119.542 283.3 119.265 283.3 118.923V118.899Z" fill="white" fill-opacity="0.7"/>
<path d="M292.859 129.371H294.049V127.271H295.435V126.277H294.049V119.361H292.425L287.847 126.879V127.271H292.859V129.371ZM289.387 126.277L292.859 120.285V126.277H289.387ZM300.689 128.489C299.023 128.489 297.959 127.173 297.959 124.639V124.079C297.959 121.615 298.967 120.215 300.661 120.215C302.355 120.215 303.335 121.727 303.335 124.051V124.611C303.335 127.145 302.439 128.489 300.689 128.489ZM300.689 129.497C303.153 129.497 304.567 127.537 304.567 124.625V124.065C304.567 121.209 303.125 119.235 300.661 119.235C298.211 119.235 296.713 121.139 296.713 124.093V124.653C296.713 127.565 298.295 129.497 300.689 129.497ZM310.218 128.489C308.552 128.489 307.488 127.173 307.488 124.639V124.079C307.488 121.615 308.496 120.215 310.19 120.215C311.884 120.215 312.864 121.727 312.864 124.051V124.611C312.864 127.145 311.968 128.489 310.218 128.489ZM310.218 129.497C312.682 129.497 314.096 127.537 314.096 124.625V124.065C314.096 121.209 312.654 119.235 310.19 119.235C307.74 119.235 306.242 121.139 306.242 124.093V124.653C306.242 127.565 307.824 129.497 310.218 129.497Z" fill="white" fill-opacity="0.7"/>
<rect x="158.5" y="64.5" width="79" height="30.8857" rx="3.5" stroke="#18B13F"/>
<path d="M186.984 84H190.284C192.168 84 193.224 83.196 193.224 81.6V81.552C193.224 80.412 192.672 79.776 191.508 79.524C192.48 79.224 192.864 78.552 192.864 77.7V77.652C192.864 76.092 191.82 75.42 190.056 75.42H186.984V84ZM188.544 82.86V80.112H189.984C191.16 80.112 191.652 80.556 191.652 81.444V81.492C191.652 82.38 191.16 82.86 190.092 82.86H188.544ZM188.544 79.032V76.56H189.84C190.86 76.56 191.328 76.908 191.328 77.724V77.772C191.328 78.648 190.92 79.032 189.864 79.032H188.544ZM198.018 84.12C200.286 84.12 201.498 82.884 201.498 80.64V75.42H199.89V80.508C199.89 82.284 199.266 82.836 198.03 82.836C196.758 82.836 196.254 82.188 196.254 80.616V75.42H194.646V80.736C194.646 82.944 195.87 84.12 198.018 84.12ZM205.454 84H207.062V80.292L209.75 75.42H208.19L206.306 78.972L204.374 75.42H202.61L205.454 80.28V84Z" fill="#18B13F"/>
<path d="M181.3 118.899C181.3 118.545 181.013 118.257 180.658 118.257H173.642C173.288 118.257 173 118.545 173 118.899C173 119.254 173.288 119.542 173.642 119.542H175.927C177.241 119.542 176.767 120.826 175.453 120.826H173.642C173.288 120.826 173 121.114 173 121.469C173 121.824 173.288 122.111 173.642 122.111H175.453C176.767 122.111 177.241 123.396 175.927 123.396H173.863C173.386 123.396 173 123.782 173 124.259C173 124.525 173.123 124.776 173.333 124.94L177.392 128.103C177.651 128.305 178.014 128.305 178.273 128.103C178.642 127.816 178.642 127.259 178.273 126.972L175.801 125.046C175.648 124.927 175.733 124.681 175.927 124.681C177.664 124.681 179.153 123.84 179.759 122.653C179.915 122.348 180.206 122.111 180.548 122.111H180.658C181.013 122.111 181.3 121.824 181.3 121.469C181.3 121.114 181.013 120.826 180.658 120.826H180.337C180.119 120.826 179.934 120.684 179.851 120.482C179.688 120.091 179.93 119.542 180.354 119.542H180.681C181.023 119.542 181.3 119.265 181.3 118.923V118.899Z" fill="white" fill-opacity="0.7"/>
<path d="M190.859 129.371H192.049V127.271H193.435V126.277H192.049V119.361H190.425L185.847 126.879V127.271H190.859V129.371ZM187.387 126.277L190.859 120.285V126.277H187.387ZM198.689 128.489C197.023 128.489 195.959 127.173 195.959 124.639V124.079C195.959 121.615 196.967 120.215 198.661 120.215C200.355 120.215 201.335 121.727 201.335 124.051V124.611C201.335 127.145 200.439 128.489 198.689 128.489ZM198.689 129.497C201.153 129.497 202.567 127.537 202.567 124.625V124.065C202.567 121.209 201.125 119.235 198.661 119.235C196.211 119.235 194.713 121.139 194.713 124.093V124.653C194.713 127.565 196.295 129.497 198.689 129.497ZM208.218 128.489C206.552 128.489 205.488 127.173 205.488 124.639V124.079C205.488 121.615 206.496 120.215 208.19 120.215C209.884 120.215 210.864 121.727 210.864 124.051V124.611C210.864 127.145 209.968 128.489 208.218 128.489ZM208.218 129.497C210.682 129.497 212.096 127.537 212.096 124.625V124.065C212.096 121.209 210.654 119.235 208.19 119.235C205.74 119.235 204.242 121.139 204.242 124.093V124.653C204.242 127.565 205.824 129.497 208.218 129.497Z" fill="white" fill-opacity="0.7"/>
<path d="M0 160H460V316H0V160Z" fill="#14141C"/>
<rect x="398" y="171" width="40" height="22.1429" rx="4" fill="white" fill-opacity="0.14"/>
<path d="M408.14 187.2H409.184V178.62H408.14V187.2ZM411.408 187.2H412.404V179.844L416.736 187.2H417.936V178.62H416.94V185.712L412.764 178.62H411.408V187.2ZM421.136 186.348V179.46H422.3C424.664 179.46 425.624 180.852 425.624 182.832V182.928C425.624 185.028 424.52 186.348 422.312 186.348H421.136ZM420.092 187.2H422.336C425.336 187.2 426.704 185.316 426.704 182.94V182.832C426.704 180.444 425.312 178.62 422.36 178.62H420.092V187.2Z" fill="white" fill-opacity="0.7"/>
<path d="M23.476 197H28.426C31.252 197 32.836 195.794 32.836 193.4V193.328C32.836 191.618 32.008 190.664 30.262 190.286C31.72 189.836 32.296 188.828 32.296 187.55V187.478C32.296 185.138 30.73 184.13 28.084 184.13H23.476V197ZM25.816 195.29V191.168H27.976C29.74 191.168 30.478 191.834 30.478 193.166V193.238C30.478 194.57 29.74 195.29 28.138 195.29H25.816ZM25.816 189.548V185.84H27.76C29.29 185.84 29.992 186.362 29.992 187.586V187.658C29.992 188.972 29.38 189.548 27.796 189.548H25.816ZM37.3636 197.18C38.8036 197.18 39.6316 196.658 40.2436 195.848V197H42.3856V190.826C42.3856 188.252 40.7296 187.388 38.6236 187.388C36.5176 187.388 34.7716 188.306 34.5916 190.502H36.6976C36.8056 189.566 37.3636 189.026 38.4976 189.026C39.7756 189.026 40.2076 189.656 40.2076 190.916V191.402H39.0376C36.3376 191.402 34.2136 192.194 34.2136 194.39C34.2136 196.352 35.6356 197.18 37.3636 197.18ZM37.8856 195.614C36.8056 195.614 36.3736 195.092 36.3736 194.3C36.3736 193.148 37.4356 192.77 39.0916 192.77H40.2076V193.706C40.2076 194.912 39.2176 195.614 37.8856 195.614ZM44.9359 197H47.1139V183.23H44.9359V197ZM52.2347 197.18C53.6747 197.18 54.5027 196.658 55.1147 195.848V197H57.2567V190.826C57.2567 188.252 55.6007 187.388 53.4947 187.388C51.3887 187.388 49.6427 188.306 49.4627 190.502H51.5687C51.6767 189.566 52.2347 189.026 53.3687 189.026C54.6467 189.026 55.0787 189.656 55.0787 190.916V191.402H53.9087C51.2087 191.402 49.0847 192.194 49.0847 194.39C49.0847 196.352 50.5067 197.18 52.2347 197.18ZM52.7567 195.614C51.6767 195.614 51.2447 195.092 51.2447 194.3C51.2447 193.148 52.3067 192.77 53.9627 192.77H55.0787V193.706C55.0787 194.912 54.0887 195.614 52.7567 195.614ZM58.511 200.384C61.121 200.348 61.985 199.232 61.985 197.324V187.586H59.807V197.378C59.807 198.17 59.465 198.638 58.511 198.71V200.384ZM60.869 186.038C61.589 186.038 62.165 185.498 62.165 184.796C62.165 184.076 61.589 183.536 60.869 183.536C60.149 183.536 59.573 184.076 59.573 184.796C59.573 185.498 60.149 186.038 60.869 186.038ZM64.6938 197H66.8718V187.586H64.6938V197ZM65.7558 186.038C66.4758 186.038 67.0518 185.498 67.0518 184.796C67.0518 184.076 66.4758 183.536 65.7558 183.536C65.0358 183.536 64.4598 184.076 64.4598 184.796C64.4598 185.498 65.0358 186.038 65.7558 186.038ZM73.0055 197H75.2555L76.2635 193.814H81.1775L82.2035 197H84.6875L80.4395 184.13H77.3075L73.0055 197ZM78.7295 186.092L80.6195 192.068H76.8215L78.7295 186.092ZM86.4718 197H88.6498V191.366C88.6498 189.926 89.6398 189.206 90.7198 189.206C91.7818 189.206 92.3938 189.8 92.3938 191.186V197H94.5718V191.366C94.5718 189.926 95.5618 189.206 96.6418 189.206C97.7218 189.206 98.3158 189.8 98.3158 191.186V197H100.494V191.042C100.494 188.45 99.0898 187.388 97.3618 187.388C96.1918 187.388 94.8958 187.91 94.1758 189.08C93.7078 187.91 92.7358 187.388 91.5118 187.388C90.1258 187.388 89.0998 188.144 88.6498 189.026V187.586H86.4718V197ZM103.049 197H105.227V187.586H103.049V197ZM104.111 186.038C104.831 186.038 105.407 185.498 105.407 184.796C105.407 184.076 104.831 183.536 104.111 183.536C103.391 183.536 102.815 184.076 102.815 184.796C102.815 185.498 103.391 186.038 104.111 186.038ZM107.882 197H110.06V191.456C110.06 189.962 111.05 189.206 112.274 189.206C113.57 189.206 114.146 189.854 114.146 191.276V197H116.324V191.078C116.324 188.486 114.992 187.388 113.102 187.388C111.554 187.388 110.51 188.162 110.06 189.08V187.586H107.882V197ZM122.973 197.18C125.385 197.18 126.987 196.1 127.293 194.12H125.187C125.025 195.038 124.341 195.56 123.027 195.56C121.407 195.56 120.507 194.552 120.435 192.77H127.329V192.14C127.329 188.774 125.223 187.388 122.883 187.388C120.201 187.388 118.203 189.332 118.203 192.248V192.392C118.203 195.362 120.201 197.18 122.973 197.18ZM120.471 191.312C120.687 189.854 121.569 188.972 122.883 188.972C124.233 188.972 125.061 189.692 125.169 191.312H120.471ZM132.584 197.18C134.996 197.18 136.346 196.082 136.346 194.174C136.346 192.176 135.032 191.636 132.818 191.294C131.324 191.042 130.874 190.772 130.874 190.088C130.874 189.422 131.432 188.972 132.368 188.972C133.376 188.972 133.862 189.368 134.042 190.232H136.058C135.824 188.108 134.294 187.388 132.368 187.388C130.604 187.388 128.84 188.324 128.84 190.214C128.84 191.978 129.758 192.68 132.242 193.076C133.628 193.31 134.258 193.598 134.258 194.372C134.258 195.164 133.736 195.578 132.566 195.578C131.288 195.578 130.802 195.02 130.694 194.066H128.642C128.732 196.064 130.154 197.18 132.584 197.18Z" fill="white"/>
<path d="M36.562 247.571H38.438V237.561H36.772L34.448 239.213V240.851L36.562 239.409V247.571ZM40.0752 247.571H47.3132V246.129H43.0572L45.2832 243.959C46.4732 242.811 47.2432 241.677 47.2432 240.375C47.2432 238.611 46.0112 237.421 43.9392 237.421C41.8252 237.421 40.5092 238.681 40.3832 240.865H42.0912C42.2592 239.451 42.8892 238.877 43.8832 238.877C44.8492 238.877 45.3812 239.465 45.3812 240.403C45.3812 241.355 44.8072 242.237 43.8552 243.245L40.0752 247.235V247.571ZM52.215 247.711C54.511 247.711 55.967 246.563 55.967 244.715C55.967 243.385 55.197 242.559 54.035 242.293C55.001 241.929 55.659 241.243 55.659 240.109C55.659 238.625 54.441 237.421 52.355 237.421C50.213 237.421 48.911 238.751 48.813 240.487H50.465C50.577 239.479 51.263 238.835 52.327 238.835C53.363 238.835 53.881 239.437 53.881 240.249C53.881 241.187 53.363 241.719 52.215 241.719H51.501V243.049H52.271C53.489 243.049 54.077 243.595 54.077 244.687C54.077 245.681 53.475 246.311 52.173 246.311C50.829 246.311 50.241 245.527 50.143 244.477H48.449C48.533 246.395 49.835 247.711 52.215 247.711ZM56.8916 247.571H64.1296V246.129H59.8736L62.0996 243.959C63.2896 242.811 64.0596 241.677 64.0596 240.375C64.0596 238.611 62.8276 237.421 60.7556 237.421C58.6416 237.421 57.3256 238.681 57.1996 240.865H58.9076C59.0756 239.451 59.7056 238.877 60.6996 238.877C61.6656 238.877 62.1976 239.465 62.1976 240.403C62.1976 241.355 61.6236 242.237 60.6716 243.245L56.8916 247.235V247.571Z" fill="white"/>
<path d="M30 236.289C30 235.893 29.6786 235.571 29.282 235.571H22.718C22.3214 235.571 22 235.893 22 236.289C22 236.686 22.3214 237.007 22.718 237.007H24.8212C26.1811 237.007 25.5982 238.443 24.2383 238.443H22.718C22.3214 238.443 22 238.765 22 239.161C22 239.558 22.3214 239.879 22.718 239.879H24.2383C25.5982 239.879 26.1811 241.315 24.8212 241.315H22.9942C22.4451 241.315 22 241.76 22 242.309C22 242.59 22.1191 242.858 22.3277 243.047L26.153 246.503C26.4398 246.762 26.8763 246.762 27.1631 246.503C27.4942 246.204 27.4942 245.684 27.1631 245.385L24.6733 243.135C24.5233 243 24.6192 242.751 24.8212 242.751C26.5211 242.751 27.9751 241.781 28.5415 240.422C28.6699 240.114 28.9519 239.879 29.2858 239.879C29.6803 239.879 30 239.555 30 239.161C30 238.767 29.6803 238.443 29.2858 238.443H29.1563C28.8982 238.443 28.6788 238.261 28.5887 238.02C28.4254 237.581 28.7083 237.007 29.1764 237.007H29.3612C29.714 237.007 30 236.721 30 236.368V236.289Z" fill="white"/>
<rect x="358.5" y="224.214" width="79" height="30.8857" rx="3.5" stroke="#18B13F"/>
<path d="M385.984 243.457H389.284C391.168 243.457 392.224 242.653 392.224 241.057V241.009C392.224 239.869 391.672 239.233 390.508 238.981C391.48 238.681 391.864 238.009 391.864 237.157V237.109C391.864 235.549 390.82 234.877 389.056 234.877H385.984V243.457ZM387.544 242.317V239.569H388.984C390.16 239.569 390.652 240.013 390.652 240.901V240.949C390.652 241.837 390.16 242.317 389.092 242.317H387.544ZM387.544 238.489V236.017H388.84C389.86 236.017 390.328 236.365 390.328 237.181V237.229C390.328 238.105 389.92 238.489 388.864 238.489H387.544ZM397.018 243.577C399.286 243.577 400.498 242.341 400.498 240.097V234.877H398.89V239.965C398.89 241.741 398.266 242.293 397.03 242.293C395.758 242.293 395.254 241.645 395.254 240.073V234.877H393.646V240.193C393.646 242.401 394.87 243.577 397.018 243.577ZM404.454 243.457H406.062V239.749L408.75 234.877H407.19L405.306 238.429L403.374 234.877H401.61L404.454 239.737V243.457Z" fill="#18B13F"/>
<path d="M385.3 278.899C385.3 278.545 385.013 278.257 384.658 278.257H377.642C377.288 278.257 377 278.545 377 278.899C377 279.254 377.288 279.542 377.642 279.542H379.927C381.241 279.542 380.767 280.826 379.453 280.826H377.642C377.288 280.826 377 281.114 377 281.469C377 281.824 377.288 282.111 377.642 282.111H379.453C380.767 282.111 381.241 283.396 379.927 283.396H377.863C377.386 283.396 377 283.782 377 284.259C377 284.525 377.123 284.776 377.333 284.94L381.392 288.103C381.651 288.305 382.014 288.305 382.273 288.103C382.642 287.816 382.642 287.259 382.273 286.972L379.801 285.046C379.648 284.927 379.733 284.681 379.927 284.681C381.664 284.681 383.153 283.84 383.759 282.653C383.915 282.348 384.206 282.111 384.548 282.111H384.658C385.013 282.111 385.3 281.824 385.3 281.469C385.3 281.114 385.013 280.826 384.658 280.826H384.337C384.119 280.826 383.934 280.684 383.851 280.482C383.688 280.091 383.93 279.542 384.354 279.542H384.681C385.023 279.542 385.3 279.265 385.3 278.923V278.899Z" fill="white" fill-opacity="0.7"/>
<path d="M394.859 289.371H396.049V287.271H397.435V286.277H396.049V279.361H394.425L389.847 286.879V287.271H394.859V289.371ZM391.387 286.277L394.859 280.285V286.277H391.387ZM402.689 288.489C401.023 288.489 399.959 287.173 399.959 284.639V284.079C399.959 281.615 400.967 280.215 402.661 280.215C404.355 280.215 405.335 281.727 405.335 284.051V284.611C405.335 287.145 404.439 288.489 402.689 288.489ZM402.689 289.497C405.153 289.497 406.567 287.537 406.567 284.625V284.065C406.567 281.209 405.125 279.235 402.661 279.235C400.211 279.235 398.713 281.139 398.713 284.093V284.653C398.713 287.565 400.295 289.497 402.689 289.497ZM412.218 288.489C410.552 288.489 409.488 287.173 409.488 284.639V284.079C409.488 281.615 410.496 280.215 412.19 280.215C413.884 280.215 414.864 281.727 414.864 284.051V284.611C414.864 287.145 413.968 288.489 412.218 288.489ZM412.218 289.497C414.682 289.497 416.096 287.537 416.096 284.625V284.065C416.096 281.209 414.654 279.235 412.19 279.235C409.74 279.235 408.242 281.139 408.242 284.093V284.653C408.242 287.565 409.824 289.497 412.218 289.497Z" fill="white" fill-opacity="0.7"/>
<path d="M26.494 290.726C28.482 290.726 29.952 289.452 29.952 287.772C29.952 285.882 28.776 285.21 26.55 284.86C24.506 284.552 24.142 284.048 24.142 283.068C24.142 282.13 24.856 281.444 26.228 281.444C27.614 281.444 28.342 281.962 28.58 283.222H29.672C29.476 281.444 28.23 280.464 26.228 280.464C24.338 280.464 23.008 281.64 23.008 283.18C23.008 284.958 24.254 285.616 26.354 285.938C28.258 286.246 28.776 286.722 28.776 287.856C28.776 288.99 27.782 289.746 26.494 289.746C24.478 289.746 24.002 288.738 23.848 287.548H22.672C22.854 289.256 23.82 290.726 26.494 290.726ZM34.1793 290.698C34.6553 290.698 34.9353 290.628 35.1733 290.544V289.564C34.9213 289.662 34.6413 289.718 34.2773 289.718C33.6893 289.718 33.3673 289.368 33.3673 288.654V284.258H35.0753V283.278H33.3673V281.612H32.2053V283.278H31.1553V284.258H32.2053V288.766C32.2053 289.914 32.8493 290.698 34.1793 290.698ZM39.9819 289.76C38.4979 289.76 37.5879 288.668 37.5879 287.002V286.89C37.5879 285.21 38.5119 284.118 39.9819 284.118C41.4379 284.118 42.3759 285.21 42.3759 286.904V287.002C42.3759 288.654 41.4519 289.76 39.9819 289.76ZM39.9679 290.726C42.0539 290.726 43.5799 289.2 43.5799 286.988V286.876C43.5799 284.678 42.0539 283.152 39.9819 283.152C37.9099 283.152 36.3839 284.692 36.3839 286.89V287.002C36.3839 289.144 37.8819 290.726 39.9679 290.726ZM45.3791 293.148H46.5411V289.396C46.9611 290.124 47.8151 290.726 49.0191 290.726C51.0351 290.726 52.3511 289.186 52.3511 286.946V286.834C52.3511 284.552 50.9371 283.152 49.0191 283.152C47.9551 283.152 46.9611 283.796 46.5411 284.51V283.278H45.3791V293.148ZM48.9071 289.76C47.4791 289.76 46.4991 288.878 46.4991 287.002V286.89C46.4991 285.014 47.5351 284.118 48.8931 284.118C50.1251 284.118 51.1471 285.042 51.1471 286.89V287.002C51.1471 288.78 50.3631 289.76 48.9071 289.76ZM53.8205 287.296H56.8165V286.204H53.8205V287.296ZM58.9163 290.6H64.7123V289.606H60.1343V280.59H58.9163V290.6ZM69.2397 289.76C67.7557 289.76 66.8457 288.668 66.8457 287.002V286.89C66.8457 285.21 67.7697 284.118 69.2397 284.118C70.6957 284.118 71.6337 285.21 71.6337 286.904V287.002C71.6337 288.654 70.7097 289.76 69.2397 289.76ZM69.2257 290.726C71.3117 290.726 72.8377 289.2 72.8377 286.988V286.876C72.8377 284.678 71.3117 283.152 69.2397 283.152C67.1677 283.152 65.6417 284.692 65.6417 286.89V287.002C65.6417 289.144 67.1397 290.726 69.2257 290.726ZM76.9049 290.726C78.6829 290.726 79.5929 289.83 79.5929 288.5C79.5929 286.946 78.5289 286.61 77.0169 286.33C75.6729 286.092 75.3089 285.826 75.3089 285.168C75.3089 284.538 75.8549 284.118 76.6949 284.118C77.6189 284.118 78.0669 284.468 78.2349 285.266H79.3549C79.1589 283.684 78.0249 283.152 76.7089 283.152C75.5609 283.152 74.2309 283.852 74.2309 285.21C74.2309 286.484 74.8749 287.016 76.7789 287.366C77.9129 287.576 78.4869 287.828 78.4869 288.598C78.4869 289.382 77.9969 289.76 76.8909 289.76C75.7149 289.76 75.2529 289.214 75.1689 288.346H74.0349C74.1049 289.844 75.1549 290.726 76.9049 290.726ZM83.6315 290.726C85.4095 290.726 86.3195 289.83 86.3195 288.5C86.3195 286.946 85.2555 286.61 83.7435 286.33C82.3995 286.092 82.0355 285.826 82.0355 285.168C82.0355 284.538 82.5815 284.118 83.4215 284.118C84.3455 284.118 84.7935 284.468 84.9615 285.266H86.0815C85.8855 283.684 84.7515 283.152 83.4355 283.152C82.2875 283.152 80.9575 283.852 80.9575 285.21C80.9575 286.484 81.6015 287.016 83.5055 287.366C84.6395 287.576 85.2135 287.828 85.2135 288.598C85.2135 289.382 84.7235 289.76 83.6175 289.76C82.4415 289.76 81.9795 289.214 81.8955 288.346H80.7615C80.8315 289.844 81.8815 290.726 83.6315 290.726Z" fill="white" fill-opacity="0.7"/>
<rect x="258.5" y="224.214" width="79" height="30.8857" rx="3.5" stroke="#18B13F"/>
<path d="M285.984 243.457H289.284C291.168 243.457 292.224 242.653 292.224 241.057V241.009C292.224 239.869 291.672 239.233 290.508 238.981C291.48 238.681 291.864 238.009 291.864 237.157V237.109C291.864 235.549 290.82 234.877 289.056 234.877H285.984V243.457ZM287.544 242.317V239.569H288.984C290.16 239.569 290.652 240.013 290.652 240.901V240.949C290.652 241.837 290.16 242.317 289.092 242.317H287.544ZM287.544 238.489V236.017H288.84C289.86 236.017 290.328 236.365 290.328 237.181V237.229C290.328 238.105 289.92 238.489 288.864 238.489H287.544ZM297.018 243.577C299.286 243.577 300.498 242.341 300.498 240.097V234.877H298.89V239.965C298.89 241.741 298.266 242.293 297.03 242.293C295.758 242.293 295.254 241.645 295.254 240.073V234.877H293.646V240.193C293.646 242.401 294.87 243.577 297.018 243.577ZM304.454 243.457H306.062V239.749L308.75 234.877H307.19L305.306 238.429L303.374 234.877H301.61L304.454 239.737V243.457Z" fill="#18B13F"/>
<path d="M283.3 278.899C283.3 278.545 283.013 278.257 282.658 278.257H275.642C275.288 278.257 275 278.545 275 278.899C275 279.254 275.288 279.542 275.642 279.542H277.927C279.241 279.542 278.767 280.826 277.453 280.826H275.642C275.288 280.826 275 281.114 275 281.469C275 281.824 275.288 282.111 275.642 282.111H277.453C278.767 282.111 279.241 283.396 277.927 283.396H275.863C275.386 283.396 275 283.782 275 284.259C275 284.525 275.123 284.776 275.333 284.94L279.392 288.103C279.651 288.305 280.014 288.305 280.273 288.103C280.642 287.816 280.642 287.259 280.273 286.972L277.801 285.046C277.648 284.927 277.733 284.681 277.927 284.681C279.664 284.681 281.153 283.84 281.759 282.653C281.915 282.348 282.206 282.111 282.548 282.111H282.658C283.013 282.111 283.3 281.824 283.3 281.469C283.3 281.114 283.013 280.826 282.658 280.826H282.337C282.119 280.826 281.934 280.684 281.851 280.482C281.688 280.091 281.93 279.542 282.354 279.542H282.681C283.023 279.542 283.3 279.265 283.3 278.923V278.899Z" fill="white" fill-opacity="0.7"/>
<path d="M292.859 289.371H294.049V287.271H295.435V286.277H294.049V279.361H292.425L287.847 286.879V287.271H292.859V289.371ZM289.387 286.277L292.859 280.285V286.277H289.387ZM300.689 288.489C299.023 288.489 297.959 287.173 297.959 284.639V284.079C297.959 281.615 298.967 280.215 300.661 280.215C302.355 280.215 303.335 281.727 303.335 284.051V284.611C303.335 287.145 302.439 288.489 300.689 288.489ZM300.689 289.497C303.153 289.497 304.567 287.537 304.567 284.625V284.065C304.567 281.209 303.125 279.235 300.661 279.235C298.211 279.235 296.713 281.139 296.713 284.093V284.653C296.713 287.565 298.295 289.497 300.689 289.497ZM310.218 288.489C308.552 288.489 307.488 287.173 307.488 284.639V284.079C307.488 281.615 308.496 280.215 310.19 280.215C311.884 280.215 312.864 281.727 312.864 284.051V284.611C312.864 287.145 311.968 288.489 310.218 288.489ZM310.218 289.497C312.682 289.497 314.096 287.537 314.096 284.625V284.065C314.096 281.209 312.654 279.235 310.19 279.235C307.74 279.235 306.242 281.139 306.242 284.093V284.653C306.242 287.565 307.824 289.497 310.218 289.497Z" fill="white" fill-opacity="0.7"/>
<rect x="158.5" y="224.5" width="79" height="30.8857" rx="3.5" stroke="#18B13F"/>
<path d="M186.984 244H190.284C192.168 244 193.224 243.196 193.224 241.6V241.552C193.224 240.412 192.672 239.776 191.508 239.524C192.48 239.224 192.864 238.552 192.864 237.7V237.652C192.864 236.092 191.82 235.42 190.056 235.42H186.984V244ZM188.544 242.86V240.112H189.984C191.16 240.112 191.652 240.556 191.652 241.444V241.492C191.652 242.38 191.16 242.86 190.092 242.86H188.544ZM188.544 239.032V236.56H189.84C190.86 236.56 191.328 236.908 191.328 237.724V237.772C191.328 238.648 190.92 239.032 189.864 239.032H188.544ZM198.018 244.12C200.286 244.12 201.498 242.884 201.498 240.64V235.42H199.89V240.508C199.89 242.284 199.266 242.836 198.03 242.836C196.758 242.836 196.254 242.188 196.254 240.616V235.42H194.646V240.736C194.646 242.944 195.87 244.12 198.018 244.12ZM205.454 244H207.062V240.292L209.75 235.42H208.19L206.306 238.972L204.374 235.42H202.61L205.454 240.28V244Z" fill="#18B13F"/>
<path d="M181.3 278.899C181.3 278.545 181.013 278.257 180.658 278.257H173.642C173.288 278.257 173 278.545 173 278.899C173 279.254 173.288 279.542 173.642 279.542H175.927C177.241 279.542 176.767 280.826 175.453 280.826H173.642C173.288 280.826 173 281.114 173 281.469C173 281.824 173.288 282.111 173.642 282.111H175.453C176.767 282.111 177.241 283.396 175.927 283.396H173.863C173.386 283.396 173 283.782 173 284.259C173 284.525 173.123 284.776 173.333 284.94L177.392 288.103C177.651 288.305 178.014 288.305 178.273 288.103C178.642 287.816 178.642 287.259 178.273 286.972L175.801 285.046C175.648 284.927 175.733 284.681 175.927 284.681C177.664 284.681 179.153 283.84 179.759 282.653C179.915 282.348 180.206 282.111 180.548 282.111H180.658C181.013 282.111 181.3 281.824 181.3 281.469C181.3 281.114 181.013 280.826 180.658 280.826H180.337C180.119 280.826 179.934 280.684 179.851 280.482C179.688 280.091 179.93 279.542 180.354 279.542H180.681C181.023 279.542 181.3 279.265 181.3 278.923V278.899Z" fill="white" fill-opacity="0.7"/>
<path d="M190.859 289.371H192.049V287.271H193.435V286.277H192.049V279.361H190.425L185.847 286.879V287.271H190.859V289.371ZM187.387 286.277L190.859 280.285V286.277H187.387ZM198.689 288.489C197.023 288.489 195.959 287.173 195.959 284.639V284.079C195.959 281.615 196.967 280.215 198.661 280.215C200.355 280.215 201.335 281.727 201.335 284.051V284.611C201.335 287.145 200.439 288.489 198.689 288.489ZM198.689 289.497C201.153 289.497 202.567 287.537 202.567 284.625V284.065C202.567 281.209 201.125 279.235 198.661 279.235C196.211 279.235 194.713 281.139 194.713 284.093V284.653C194.713 287.565 196.295 289.497 198.689 289.497ZM208.218 288.489C206.552 288.489 205.488 287.173 205.488 284.639V284.079C205.488 281.615 206.496 280.215 208.19 280.215C209.884 280.215 210.864 281.727 210.864 284.051V284.611C210.864 287.145 209.968 288.489 208.218 288.489ZM208.218 289.497C210.682 289.497 212.096 287.537 212.096 284.625V284.065C212.096 281.209 210.654 279.235 208.19 279.235C205.74 279.235 204.242 281.139 204.242 284.093V284.653C204.242 287.565 205.824 289.497 208.218 289.497Z" fill="white" fill-opacity="0.7"/>
<path d="M0 320H460V476H0V320Z" fill="#14141C"/>
<rect x="398" y="331" width="40" height="22.1429" rx="4" fill="white" fill-opacity="0.14"/>
<path d="M408.14 347.2H409.184V338.62H408.14V347.2ZM411.408 347.2H412.404V339.844L416.736 347.2H417.936V338.62H416.94V345.712L412.764 338.62H411.408V347.2ZM421.136 346.348V339.46H422.3C424.664 339.46 425.624 340.852 425.624 342.832V342.928C425.624 345.028 424.52 346.348 422.312 346.348H421.136ZM420.092 347.2H422.336C425.336 347.2 426.704 345.316 426.704 342.94V342.832C426.704 340.444 425.312 338.62 422.36 338.62H420.092V347.2Z" fill="white" fill-opacity="0.7"/>
<path d="M23.476 357H28.426C31.252 357 32.836 355.794 32.836 353.4V353.328C32.836 351.618 32.008 350.664 30.262 350.286C31.72 349.836 32.296 348.828 32.296 347.55V347.478C32.296 345.138 30.73 344.13 28.084 344.13H23.476V357ZM25.816 355.29V351.168H27.976C29.74 351.168 30.478 351.834 30.478 353.166V353.238C30.478 354.57 29.74 355.29 28.138 355.29H25.816ZM25.816 349.548V345.84H27.76C29.29 345.84 29.992 346.362 29.992 347.586V347.658C29.992 348.972 29.38 349.548 27.796 349.548H25.816ZM37.3636 357.18C38.8036 357.18 39.6316 356.658 40.2436 355.848V357H42.3856V350.826C42.3856 348.252 40.7296 347.388 38.6236 347.388C36.5176 347.388 34.7716 348.306 34.5916 350.502H36.6976C36.8056 349.566 37.3636 349.026 38.4976 349.026C39.7756 349.026 40.2076 349.656 40.2076 350.916V351.402H39.0376C36.3376 351.402 34.2136 352.194 34.2136 354.39C34.2136 356.352 35.6356 357.18 37.3636 357.18ZM37.8856 355.614C36.8056 355.614 36.3736 355.092 36.3736 354.3C36.3736 353.148 37.4356 352.77 39.0916 352.77H40.2076V353.706C40.2076 354.912 39.2176 355.614 37.8856 355.614ZM44.9359 357H47.1139V343.23H44.9359V357ZM52.2347 357.18C53.6747 357.18 54.5027 356.658 55.1147 355.848V357H57.2567V350.826C57.2567 348.252 55.6007 347.388 53.4947 347.388C51.3887 347.388 49.6427 348.306 49.4627 350.502H51.5687C51.6767 349.566 52.2347 349.026 53.3687 349.026C54.6467 349.026 55.0787 349.656 55.0787 350.916V351.402H53.9087C51.2087 351.402 49.0847 352.194 49.0847 354.39C49.0847 356.352 50.5067 357.18 52.2347 357.18ZM52.7567 355.614C51.6767 355.614 51.2447 355.092 51.2447 354.3C51.2447 353.148 52.3067 352.77 53.9627 352.77H55.0787V353.706C55.0787 354.912 54.0887 355.614 52.7567 355.614ZM58.511 360.384C61.121 360.348 61.985 359.232 61.985 357.324V347.586H59.807V357.378C59.807 358.17 59.465 358.638 58.511 358.71V360.384ZM60.869 346.038C61.589 346.038 62.165 345.498 62.165 344.796C62.165 344.076 61.589 343.536 60.869 343.536C60.149 343.536 59.573 344.076 59.573 344.796C59.573 345.498 60.149 346.038 60.869 346.038ZM64.6938 357H66.8718V347.586H64.6938V357ZM65.7558 346.038C66.4758 346.038 67.0518 345.498 67.0518 344.796C67.0518 344.076 66.4758 343.536 65.7558 343.536C65.0358 343.536 64.4598 344.076 64.4598 344.796C64.4598 345.498 65.0358 346.038 65.7558 346.038ZM73.0055 357H75.2555L76.2635 353.814H81.1775L82.2035 357H84.6875L80.4395 344.13H77.3075L73.0055 357ZM78.7295 346.092L80.6195 352.068H76.8215L78.7295 346.092ZM86.4718 357H88.6498V351.366C88.6498 349.926 89.6398 349.206 90.7198 349.206C91.7818 349.206 92.3938 349.8 92.3938 351.186V357H94.5718V351.366C94.5718 349.926 95.5618 349.206 96.6418 349.206C97.7218 349.206 98.3158 349.8 98.3158 351.186V357H100.494V351.042C100.494 348.45 99.0898 347.388 97.3618 347.388C96.1918 347.388 94.8958 347.91 94.1758 349.08C93.7078 347.91 92.7358 347.388 91.5118 347.388C90.1258 347.388 89.0998 348.144 88.6498 349.026V347.586H86.4718V357ZM103.049 357H105.227V347.586H103.049V357ZM104.111 346.038C104.831 346.038 105.407 345.498 105.407 344.796C105.407 344.076 104.831 343.536 104.111 343.536C103.391 343.536 102.815 344.076 102.815 344.796C102.815 345.498 103.391 346.038 104.111 346.038ZM107.882 357H110.06V351.456C110.06 349.962 111.05 349.206 112.274 349.206C113.57 349.206 114.146 349.854 114.146 351.276V357H116.324V351.078C116.324 348.486 114.992 347.388 113.102 347.388C111.554 347.388 110.51 348.162 110.06 349.08V347.586H107.882V357ZM122.973 357.18C125.385 357.18 126.987 356.1 127.293 354.12H125.187C125.025 355.038 124.341 355.56 123.027 355.56C121.407 355.56 120.507 354.552 120.435 352.77H127.329V352.14C127.329 348.774 125.223 347.388 122.883 347.388C120.201 347.388 118.203 349.332 118.203 352.248V352.392C118.203 355.362 120.201 357.18 122.973 357.18ZM120.471 351.312C120.687 349.854 121.569 348.972 122.883 348.972C124.233 348.972 125.061 349.692 125.169 351.312H120.471ZM132.584 357.18C134.996 357.18 136.346 356.082 136.346 354.174C136.346 352.176 135.032 351.636 132.818 351.294C131.324 351.042 130.874 350.772 130.874 350.088C130.874 349.422 131.432 348.972 132.368 348.972C133.376 348.972 133.862 349.368 134.042 350.232H136.058C135.824 348.108 134.294 347.388 132.368 347.388C130.604 347.388 128.84 348.324 128.84 350.214C128.84 351.978 129.758 352.68 132.242 353.076C133.628 353.31 134.258 353.598 134.258 354.372C134.258 355.164 133.736 355.578 132.566 355.578C131.288 355.578 130.802 355.02 130.694 354.066H128.642C128.732 356.064 130.154 357.18 132.584 357.18Z" fill="white"/>
<path d="M36.562 407.571H38.438V397.561H36.772L34.448 399.213V400.851L36.562 399.409V407.571ZM40.0752 407.571H47.3132V406.129H43.0572L45.2832 403.959C46.4732 402.811 47.2432 401.677 47.2432 400.375C47.2432 398.611 46.0112 397.421 43.9392 397.421C41.8252 397.421 40.5092 398.681 40.3832 400.865H42.0912C42.2592 399.451 42.8892 398.877 43.8832 398.877C44.8492 398.877 45.3812 399.465 45.3812 400.403C45.3812 401.355 44.8072 402.237 43.8552 403.245L40.0752 407.235V407.571ZM52.215 407.711C54.511 407.711 55.967 406.563 55.967 404.715C55.967 403.385 55.197 402.559 54.035 402.293C55.001 401.929 55.659 401.243 55.659 400.109C55.659 398.625 54.441 397.421 52.355 397.421C50.213 397.421 48.911 398.751 48.813 400.487H50.465C50.577 399.479 51.263 398.835 52.327 398.835C53.363 398.835 53.881 399.437 53.881 400.249C53.881 401.187 53.363 401.719 52.215 401.719H51.501V403.049H52.271C53.489 403.049 54.077 403.595 54.077 404.687C54.077 405.681 53.475 406.311 52.173 406.311C50.829 406.311 50.241 405.527 50.143 404.477H48.449C48.533 406.395 49.835 407.711 52.215 407.711ZM56.8916 407.571H64.1296V406.129H59.8736L62.0996 403.959C63.2896 402.811 64.0596 401.677 64.0596 400.375C64.0596 398.611 62.8276 397.421 60.7556 397.421C58.6416 397.421 57.3256 398.681 57.1996 400.865H58.9076C59.0756 399.451 59.7056 398.877 60.6996 398.877C61.6656 398.877 62.1976 399.465 62.1976 400.403C62.1976 401.355 61.6236 402.237 60.6716 403.245L56.8916 407.235V407.571Z" fill="white"/>
<path d="M30 396.289C30 395.893 29.6786 395.571 29.282 395.571H22.718C22.3214 395.571 22 395.893 22 396.289C22 396.686 22.3214 397.007 22.718 397.007H24.8212C26.1811 397.007 25.5982 398.443 24.2383 398.443H22.718C22.3214 398.443 22 398.765 22 399.161C22 399.558 22.3214 399.879 22.718 399.879H24.2383C25.5982 399.879 26.1811 401.315 24.8212 401.315H22.9942C22.4451 401.315 22 401.76 22 402.309C22 402.59 22.1191 402.858 22.3277 403.047L26.153 406.503C26.4398 406.762 26.8763 406.762 27.1631 406.503C27.4942 406.204 27.4942 405.684 27.1631 405.385L24.6733 403.135C24.5233 403 24.6192 402.751 24.8212 402.751C26.5211 402.751 27.9751 401.781 28.5415 400.422C28.6699 400.114 28.9519 399.879 29.2858 399.879C29.6803 399.879 30 399.555 30 399.161C30 398.767 29.6803 398.443 29.2858 398.443H29.1563C28.8982 398.443 28.6788 398.261 28.5887 398.02C28.4254 397.581 28.7083 397.007 29.1764 397.007H29.3612C29.714 397.007 30 396.721 30 396.368V396.289Z" fill="white"/>
<rect x="358.5" y="384.214" width="79" height="30.8857" rx="3.5" stroke="#18B13F"/>
<path d="M385.984 403.457H389.284C391.168 403.457 392.224 402.653 392.224 401.057V401.009C392.224 399.869 391.672 399.233 390.508 398.981C391.48 398.681 391.864 398.009 391.864 397.157V397.109C391.864 395.549 390.82 394.877 389.056 394.877H385.984V403.457ZM387.544 402.317V399.569H388.984C390.16 399.569 390.652 400.013 390.652 400.901V400.949C390.652 401.837 390.16 402.317 389.092 402.317H387.544ZM387.544 398.489V396.017H388.84C389.86 396.017 390.328 396.365 390.328 397.181V397.229C390.328 398.105 389.92 398.489 388.864 398.489H387.544ZM397.018 403.577C399.286 403.577 400.498 402.341 400.498 400.097V394.877H398.89V399.965C398.89 401.741 398.266 402.293 397.03 402.293C395.758 402.293 395.254 401.645 395.254 400.073V394.877H393.646V400.193C393.646 402.401 394.87 403.577 397.018 403.577ZM404.454 403.457H406.062V399.749L408.75 394.877H407.19L405.306 398.429L403.374 394.877H401.61L404.454 399.737V403.457Z" fill="#18B13F"/>
<path d="M385.3 438.899C385.3 438.545 385.013 438.257 384.658 438.257H377.642C377.288 438.257 377 438.545 377 438.899C377 439.254 377.288 439.542 377.642 439.542H379.927C381.241 439.542 380.767 440.826 379.453 440.826H377.642C377.288 440.826 377 441.114 377 441.469C377 441.824 377.288 442.111 377.642 442.111H379.453C380.767 442.111 381.241 443.396 379.927 443.396H377.863C377.386 443.396 377 443.782 377 444.259C377 444.525 377.123 444.776 377.333 444.94L381.392 448.103C381.651 448.305 382.014 448.305 382.273 448.103C382.642 447.816 382.642 447.259 382.273 446.972L379.801 445.046C379.648 444.927 379.733 444.681 379.927 444.681C381.664 444.681 383.153 443.84 383.759 442.653C383.915 442.348 384.206 442.111 384.548 442.111H384.658C385.013 442.111 385.3 441.824 385.3 441.469C385.3 441.114 385.013 440.826 384.658 440.826H384.337C384.119 440.826 383.934 440.684 383.851 440.482C383.688 440.091 383.93 439.542 384.354 439.542H384.681C385.023 439.542 385.3 439.265 385.3 438.923V438.899Z" fill="white" fill-opacity="0.7"/>
<path d="M394.859 449.371H396.049V447.271H397.435V446.277H396.049V439.361H394.425L389.847 446.879V447.271H394.859V449.371ZM391.387 446.277L394.859 440.285V446.277H391.387ZM402.689 448.489C401.023 448.489 399.959 447.173 399.959 444.639V444.079C399.959 441.615 400.967 440.215 402.661 440.215C404.355 440.215 405.335 441.727 405.335 444.051V444.611C405.335 447.145 404.439 448.489 402.689 448.489ZM402.689 449.497C405.153 449.497 406.567 447.537 406.567 444.625V444.065C406.567 441.209 405.125 439.235 402.661 439.235C400.211 439.235 398.713 441.139 398.713 444.093V444.653C398.713 447.565 400.295 449.497 402.689 449.497ZM412.218 448.489C410.552 448.489 409.488 447.173 409.488 444.639V444.079C409.488 441.615 410.496 440.215 412.19 440.215C413.884 440.215 414.864 441.727 414.864 444.051V444.611C414.864 447.145 413.968 448.489 412.218 448.489ZM412.218 449.497C414.682 449.497 416.096 447.537 416.096 444.625V444.065C416.096 441.209 414.654 439.235 412.19 439.235C409.74 439.235 408.242 441.139 408.242 444.093V444.653C408.242 447.565 409.824 449.497 412.218 449.497Z" fill="white" fill-opacity="0.7"/>
<path d="M26.494 450.726C28.482 450.726 29.952 449.452 29.952 447.772C29.952 445.882 28.776 445.21 26.55 444.86C24.506 444.552 24.142 444.048 24.142 443.068C24.142 442.13 24.856 441.444 26.228 441.444C27.614 441.444 28.342 441.962 28.58 443.222H29.672C29.476 441.444 28.23 440.464 26.228 440.464C24.338 440.464 23.008 441.64 23.008 443.18C23.008 444.958 24.254 445.616 26.354 445.938C28.258 446.246 28.776 446.722 28.776 447.856C28.776 448.99 27.782 449.746 26.494 449.746C24.478 449.746 24.002 448.738 23.848 447.548H22.672C22.854 449.256 23.82 450.726 26.494 450.726ZM34.1793 450.698C34.6553 450.698 34.9353 450.628 35.1733 450.544V449.564C34.9213 449.662 34.6413 449.718 34.2773 449.718C33.6893 449.718 33.3673 449.368 33.3673 448.654V444.258H35.0753V443.278H33.3673V441.612H32.2053V443.278H31.1553V444.258H32.2053V448.766C32.2053 449.914 32.8493 450.698 34.1793 450.698ZM39.9819 449.76C38.4979 449.76 37.5879 448.668 37.5879 447.002V446.89C37.5879 445.21 38.5119 444.118 39.9819 444.118C41.4379 444.118 42.3759 445.21 42.3759 446.904V447.002C42.3759 448.654 41.4519 449.76 39.9819 449.76ZM39.9679 450.726C42.0539 450.726 43.5799 449.2 43.5799 446.988V446.876C43.5799 444.678 42.0539 443.152 39.9819 443.152C37.9099 443.152 36.3839 444.692 36.3839 446.89V447.002C36.3839 449.144 37.8819 450.726 39.9679 450.726ZM45.3791 453.148H46.5411V449.396C46.9611 450.124 47.8151 450.726 49.0191 450.726C51.0351 450.726 52.3511 449.186 52.3511 446.946V446.834C52.3511 444.552 50.9371 443.152 49.0191 443.152C47.9551 443.152 46.9611 443.796 46.5411 444.51V443.278H45.3791V453.148ZM48.9071 449.76C47.4791 449.76 46.4991 448.878 46.4991 447.002V446.89C46.4991 445.014 47.5351 444.118 48.8931 444.118C50.1251 444.118 51.1471 445.042 51.1471 446.89V447.002C51.1471 448.78 50.3631 449.76 48.9071 449.76ZM53.8205 447.296H56.8165V446.204H53.8205V447.296ZM58.9163 450.6H64.7123V449.606H60.1343V440.59H58.9163V450.6ZM69.2397 449.76C67.7557 449.76 66.8457 448.668 66.8457 447.002V446.89C66.8457 445.21 67.7697 444.118 69.2397 444.118C70.6957 444.118 71.6337 445.21 71.6337 446.904V447.002C71.6337 448.654 70.7097 449.76 69.2397 449.76ZM69.2257 450.726C71.3117 450.726 72.8377 449.2 72.8377 446.988V446.876C72.8377 444.678 71.3117 443.152 69.2397 443.152C67.1677 443.152 65.6417 444.692 65.6417 446.89V447.002C65.6417 449.144 67.1397 450.726 69.2257 450.726ZM76.9049 450.726C78.6829 450.726 79.5929 449.83 79.5929 448.5C79.5929 446.946 78.5289 446.61 77.0169 446.33C75.6729 446.092 75.3089 445.826 75.3089 445.168C75.3089 444.538 75.8549 444.118 76.6949 444.118C77.6189 444.118 78.0669 444.468 78.2349 445.266H79.3549C79.1589 443.684 78.0249 443.152 76.7089 443.152C75.5609 443.152 74.2309 443.852 74.2309 445.21C74.2309 446.484 74.8749 447.016 76.7789 447.366C77.9129 447.576 78.4869 447.828 78.4869 448.598C78.4869 449.382 77.9969 449.76 76.8909 449.76C75.7149 449.76 75.2529 449.214 75.1689 448.346H74.0349C74.1049 449.844 75.1549 450.726 76.9049 450.726ZM83.6315 450.726C85.4095 450.726 86.3195 449.83 86.3195 448.5C86.3195 446.946 85.2555 446.61 83.7435 446.33C82.3995 446.092 82.0355 445.826 82.0355 445.168C82.0355 444.538 82.5815 444.118 83.4215 444.118C84.3455 444.118 84.7935 444.468 84.9615 445.266H86.0815C85.8855 443.684 84.7515 443.152 83.4355 443.152C82.2875 443.152 80.9575 443.852 80.9575 445.21C80.9575 446.484 81.6015 447.016 83.5055 447.366C84.6395 447.576 85.2135 447.828 85.2135 448.598C85.2135 449.382 84.7235 449.76 83.6175 449.76C82.4415 449.76 81.9795 449.214 81.8955 448.346H80.7615C80.8315 449.844 81.8815 450.726 83.6315 450.726Z" fill="white" fill-opacity="0.7"/>
<rect x="258.5" y="384.214" width="79" height="30.8857" rx="3.5" stroke="#18B13F"/>
<path d="M285.984 403.457H289.284C291.168 403.457 292.224 402.653 292.224 401.057V401.009C292.224 399.869 291.672 399.233 290.508 398.981C291.48 398.681 291.864 398.009 291.864 397.157V397.109C291.864 395.549 290.82 394.877 289.056 394.877H285.984V403.457ZM287.544 402.317V399.569H288.984C290.16 399.569 290.652 400.013 290.652 400.901V400.949C290.652 401.837 290.16 402.317 289.092 402.317H287.544ZM287.544 398.489V396.017H288.84C289.86 396.017 290.328 396.365 290.328 397.181V397.229C290.328 398.105 289.92 398.489 288.864 398.489H287.544ZM297.018 403.577C299.286 403.577 300.498 402.341 300.498 400.097V394.877H298.89V399.965C298.89 401.741 298.266 402.293 297.03 402.293C295.758 402.293 295.254 401.645 295.254 400.073V394.877H293.646V400.193C293.646 402.401 294.87 403.577 297.018 403.577ZM304.454 403.457H306.062V399.749L308.75 394.877H307.19L305.306 398.429L303.374 394.877H301.61L304.454 399.737V403.457Z" fill="#18B13F"/>
<path d="M283.3 438.899C283.3 438.545 283.013 438.257 282.658 438.257H275.642C275.288 438.257 275 438.545 275 438.899C275 439.254 275.288 439.542 275.642 439.542H277.927C279.241 439.542 278.767 440.826 277.453 440.826H275.642C275.288 440.826 275 441.114 275 441.469C275 441.824 275.288 442.111 275.642 442.111H277.453C278.767 442.111 279.241 443.396 277.927 443.396H275.863C275.386 443.396 275 443.782 275 444.259C275 444.525 275.123 444.776 275.333 444.94L279.392 448.103C279.651 448.305 280.014 448.305 280.273 448.103C280.642 447.816 280.642 447.259 280.273 446.972L277.801 445.046C277.648 444.927 277.733 444.681 277.927 444.681C279.664 444.681 281.153 443.84 281.759 442.653C281.915 442.348 282.206 442.111 282.548 442.111H282.658C283.013 442.111 283.3 441.824 283.3 441.469C283.3 441.114 283.013 440.826 282.658 440.826H282.337C282.119 440.826 281.934 440.684 281.851 440.482C281.688 440.091 281.93 439.542 282.354 439.542H282.681C283.023 439.542 283.3 439.265 283.3 438.923V438.899Z" fill="white" fill-opacity="0.7"/>
<path d="M292.859 449.371H294.049V447.271H295.435V446.277H294.049V439.361H292.425L287.847 446.879V447.271H292.859V449.371ZM289.387 446.277L292.859 440.285V446.277H289.387ZM300.689 448.489C299.023 448.489 297.959 447.173 297.959 444.639V444.079C297.959 441.615 298.967 440.215 300.661 440.215C302.355 440.215 303.335 441.727 303.335 444.051V444.611C303.335 447.145 302.439 448.489 300.689 448.489ZM300.689 449.497C303.153 449.497 304.567 447.537 304.567 444.625V444.065C304.567 441.209 303.125 439.235 300.661 439.235C298.211 439.235 296.713 441.139 296.713 444.093V444.653C296.713 447.565 298.295 449.497 300.689 449.497ZM310.218 448.489C308.552 448.489 307.488 447.173 307.488 444.639V444.079C307.488 441.615 308.496 440.215 310.19 440.215C311.884 440.215 312.864 441.727 312.864 444.051V444.611C312.864 447.145 311.968 448.489 310.218 448.489ZM310.218 449.497C312.682 449.497 314.096 447.537 314.096 444.625V444.065C314.096 441.209 312.654 439.235 310.19 439.235C307.74 439.235 306.242 441.139 306.242 444.093V444.653C306.242 447.565 307.824 449.497 310.218 449.497Z" fill="white" fill-opacity="0.7"/>
<rect x="158.5" y="384.5" width="79" height="30.8857" rx="3.5" stroke="#18B13F"/>
<path d="M186.984 404H190.284C192.168 404 193.224 403.196 193.224 401.6V401.552C193.224 400.412 192.672 399.776 191.508 399.524C192.48 399.224 192.864 398.552 192.864 397.7V397.652C192.864 396.092 191.82 395.42 190.056 395.42H186.984V404ZM188.544 402.86V400.112H189.984C191.16 400.112 191.652 400.556 191.652 401.444V401.492C191.652 402.38 191.16 402.86 190.092 402.86H188.544ZM188.544 399.032V396.56H189.84C190.86 396.56 191.328 396.908 191.328 397.724V397.772C191.328 398.648 190.92 399.032 189.864 399.032H188.544ZM198.018 404.12C200.286 404.12 201.498 402.884 201.498 400.64V395.42H199.89V400.508C199.89 402.284 199.266 402.836 198.03 402.836C196.758 402.836 196.254 402.188 196.254 400.616V395.42H194.646V400.736C194.646 402.944 195.87 404.12 198.018 404.12ZM205.454 404H207.062V400.292L209.75 395.42H208.19L206.306 398.972L204.374 395.42H202.61L205.454 400.28V404Z" fill="#18B13F"/>
<path d="M181.3 438.899C181.3 438.545 181.013 438.257 180.658 438.257H173.642C173.288 438.257 173 438.545 173 438.899C173 439.254 173.288 439.542 173.642 439.542H175.927C177.241 439.542 176.767 440.826 175.453 440.826H173.642C173.288 440.826 173 441.114 173 441.469C173 441.824 173.288 442.111 173.642 442.111H175.453C176.767 442.111 177.241 443.396 175.927 443.396H173.863C173.386 443.396 173 443.782 173 444.259C173 444.525 173.123 444.776 173.333 444.94L177.392 448.103C177.651 448.305 178.014 448.305 178.273 448.103C178.642 447.816 178.642 447.259 178.273 446.972L175.801 445.046C175.648 444.927 175.733 444.681 175.927 444.681C177.664 444.681 179.153 443.84 179.759 442.653C179.915 442.348 180.206 442.111 180.548 442.111H180.658C181.013 442.111 181.3 441.824 181.3 441.469C181.3 441.114 181.013 440.826 180.658 440.826H180.337C180.119 440.826 179.934 440.684 179.851 440.482C179.688 440.091 179.93 439.542 180.354 439.542H180.681C181.023 439.542 181.3 439.265 181.3 438.923V438.899Z" fill="white" fill-opacity="0.7"/>
<path d="M190.859 449.371H192.049V447.271H193.435V446.277H192.049V439.361H190.425L185.847 446.879V447.271H190.859V449.371ZM187.387 446.277L190.859 440.285V446.277H187.387ZM198.689 448.489C197.023 448.489 195.959 447.173 195.959 444.639V444.079C195.959 441.615 196.967 440.215 198.661 440.215C200.355 440.215 201.335 441.727 201.335 444.051V444.611C201.335 447.145 200.439 448.489 198.689 448.489ZM198.689 449.497C201.153 449.497 202.567 447.537 202.567 444.625V444.065C202.567 441.209 201.125 439.235 198.661 439.235C196.211 439.235 194.713 441.139 194.713 444.093V444.653C194.713 447.565 196.295 449.497 198.689 449.497ZM208.218 448.489C206.552 448.489 205.488 447.173 205.488 444.639V444.079C205.488 441.615 206.496 440.215 208.19 440.215C209.884 440.215 210.864 441.727 210.864 444.051V444.611C210.864 447.145 209.968 448.489 208.218 448.489ZM208.218 449.497C210.682 449.497 212.096 447.537 212.096 444.625V444.065C212.096 441.209 210.654 439.235 208.19 439.235C205.74 439.235 204.242 441.139 204.242 444.093V444.653C204.242 447.565 205.824 449.497 208.218 449.497Z" fill="white" fill-opacity="0.7"/>
</svg>
