<svg width="95" height="94" viewBox="0 0 95 94" fill="none" xmlns="http://www.w3.org/2000/svg">
<path d="M25 69.763C25 68.8506 24.4732 67.9755 23.5356 67.3304C22.5979 66.6852 21.3261 66.3228 20 66.3228H5.00001C3.67392 66.3228 2.40215 66.6852 1.46447 67.3304C0.526786 67.9755 0 68.8506 0 69.763V93.8447H25V69.763Z" fill="#18B13F"/>
<path d="M60 52.8091C60 51.8196 59.4732 50.8706 58.5356 50.1709C57.5979 49.4712 56.3261 49.0781 55 49.0781H40C38.6739 49.0781 37.4022 49.4712 36.4645 50.1709C35.5268 50.8706 35 51.8196 35 52.8091V93.85H60V52.8091Z" fill="#18B13F"/>
<path d="M95 35.7085C95 34.6805 94.4733 33.6946 93.5356 32.9678C92.5979 32.2409 91.3261 31.8325 90 31.8325H75C73.6739 31.8325 72.4021 32.2409 71.4645 32.9678C70.5268 33.6946 70 34.6805 70 35.7085V93.8475H95V35.7085Z" fill="#18B13F"/>
<path d="M6.48027 46.6592C7.01254 46.6598 7.5397 46.5695 8.03147 46.3937C8.52323 46.2178 8.9699 45.9597 9.34581 45.6343L32.1454 25.9456L41.437 33.9695C41.8133 34.2945 42.26 34.5522 42.7517 34.7281C43.2434 34.904 43.7703 34.9945 44.3025 34.9945C44.8347 34.9945 45.3617 34.904 45.8534 34.7281C46.345 34.5522 46.7918 34.2945 47.1681 33.9695L72.6677 11.9493L72.6662 19.8302C72.6662 20.7583 73.0931 21.6484 73.8531 22.3046C74.6131 22.9609 75.6438 23.3296 76.7186 23.3296C77.7933 23.3296 78.8241 22.9609 79.584 22.3046C80.344 21.6484 80.771 20.7583 80.771 19.8302L80.774 3.49944C80.774 2.57133 80.347 1.68123 79.5871 1.02496C78.8271 0.36869 77.7964 0 76.7216 0H57.8105C56.7357 0 55.705 0.36869 54.945 1.02496C54.185 1.68123 53.7581 2.57133 53.7581 3.49944C53.7581 4.42755 54.185 5.31764 54.945 5.97392C55.705 6.63019 56.7357 6.99888 57.8105 6.99888H66.9383L44.3025 26.546L35.0109 18.5221C34.6346 18.1971 34.1879 17.9393 33.6962 17.7635C33.2045 17.5876 32.6776 17.4971 32.1454 17.4971C31.6132 17.4971 31.0862 17.5876 30.5945 17.7635C30.1029 17.9393 29.6561 18.1971 29.2798 18.5221L3.61473 40.6852C3.04796 41.1746 2.66198 41.7982 2.50561 42.477C2.34924 43.1558 2.42949 43.8595 2.73621 44.4989C3.04294 45.1384 3.56237 45.6849 4.22881 46.0695C4.89525 46.454 5.67876 46.6592 6.48027 46.6592Z" fill="black"/>
</svg>
